<?xml version="1.0" encoding="UTF-8" ?>
<!DOCTYPE svg PUBLIC "-//W3C//DTD SVG 1.1//EN" "http://www.w3.org/Graphics/SVG/1.1/DTD/svg11.dtd">
<svg width="500pt" height="500pt" viewBox="0 0 500 500" version="1.1" xmlns="http://www.w3.org/2000/svg">
<g id="#ffffffff">
<path fill="#ffffff" opacity="00" d=" M 0.00 0.00 L 500.00 0.00 L 500.00 500.00 L 0.00 500.00 L 0.00 0.00 M 34.58 81.81 C 90.52 138.06 146.70 194.07 202.70 250.26 C 146.69 306.45 90.51 362.48 34.56 418.73 C 130.01 418.76 225.46 418.78 320.92 418.72 C 299.18 396.91 277.53 375.01 255.74 353.25 C 235.27 353.23 214.80 353.28 194.33 353.22 C 222.92 324.45 251.31 295.48 280.25 267.06 C 280.23 287.27 280.24 307.49 280.25 327.71 C 310.52 358.08 340.74 388.53 371.15 418.77 C 402.53 418.73 433.92 418.77 465.30 418.74 C 409.37 362.47 353.15 306.47 297.15 250.26 C 353.14 194.04 409.35 138.03 465.32 81.79 C 369.86 81.70 274.41 81.76 178.95 81.76 C 200.65 103.59 222.28 125.51 244.09 147.24 C 264.57 147.27 285.04 147.24 305.52 147.25 C 276.98 175.97 248.02 204.28 219.64 233.16 C 219.55 212.93 219.68 192.70 219.58 172.47 C 189.37 142.20 159.10 111.98 128.84 81.77 C 97.42 81.76 66.00 81.69 34.58 81.81 Z" />
</g>
<g id="#000000ff">
<path fill="#000000" opacity="1.00" d=" M 34.58 81.81 C 66.00 81.69 97.42 81.76 128.84 81.77 C 159.10 111.98 189.37 142.20 219.58 172.47 C 219.68 192.70 219.55 212.93 219.64 233.16 C 248.02 204.28 276.98 175.97 305.52 147.25 C 285.04 147.24 264.57 147.27 244.09 147.24 C 222.28 125.51 200.65 103.59 178.95 81.76 C 274.41 81.76 369.86 81.70 465.32 81.79 C 409.35 138.03 353.14 194.04 297.15 250.26 C 353.15 306.47 409.37 362.47 465.30 418.74 C 433.92 418.77 402.53 418.73 371.15 418.77 C 340.74 388.53 310.52 358.08 280.25 327.71 C 280.24 307.49 280.23 287.27 280.25 267.06 C 251.31 295.48 222.92 324.45 194.33 353.22 C 214.80 353.28 235.27 353.23 255.74 353.25 C 277.53 375.01 299.18 396.91 320.92 418.72 C 225.46 418.78 130.01 418.76 34.56 418.73 C 90.51 362.48 146.69 306.45 202.70 250.26 C 146.70 194.07 90.52 138.06 34.58 81.81 Z" />
</g>
</svg>
