<?xml version="1.0" standalone="no"?>
<!DOCTYPE svg PUBLIC "-//W3C//DTD SVG 20010904//EN"
 "http://www.w3.org/TR/2001/REC-SVG-20010904/DTD/svg10.dtd">
<svg version="1.0" xmlns="http://www.w3.org/2000/svg"
 width="450.000000pt" height="450.000000pt" viewBox="0 0 450.000000 450.000000"
 preserveAspectRatio="xMidYMid meet">
<metadata>
Created by potrace 1.16, written by Peter Selinger 2001-2019
</metadata>
<g transform="translate(0.000000,450.000000) scale(0.100000,-0.100000)"
fill="#000000" stroke="none">
<path d="M1925 4489 c-73 -7 -182 -32 -385 -89 -98 -27 -250 -94 -395 -173
-179 -98 -341 -222 -507 -389 -101 -101 -258 -293 -258 -314 0 -4 -12 -23 -27
-42 -29 -37 -109 -176 -142 -247 -39 -82 -100 -231 -106 -260 -4 -16 -18 -66
-31 -109 -58 -188 -66 -245 -71 -526 -8 -386 0 -451 97 -799 28 -99 95 -254
170 -391 137 -249 372 -523 597 -693 56 -42 106 -77 110 -77 5 0 25 -13 44
-29 76 -63 373 -208 509 -249 127 -39 190 -55 295 -77 112 -23 139 -25 418
-25 261 0 312 3 400 20 184 37 355 88 467 138 30 13 73 31 95 40 22 8 45 18
50 22 6 4 46 27 90 50 44 23 101 58 126 76 26 19 49 34 53 34 3 0 52 35 108
78 194 146 388 361 541 595 26 40 47 76 47 80 0 4 20 42 45 85 25 42 45 82 45
89 0 6 13 40 29 75 35 78 62 154 95 278 62 226 61 219 61 590 0 379 5 331 -71
630 -16 63 -96 275 -134 355 -38 79 -108 201 -155 270 -41 60 -155 208 -184
240 -71 77 -177 185 -182 185 -3 0 -23 16 -44 36 -45 42 -192 154 -203 154 -4
0 -23 13 -42 28 -19 16 -62 44 -95 62 -33 18 -87 48 -121 66 -33 19 -66 34
-72 34 -6 0 -45 16 -86 35 -42 19 -108 44 -148 55 -235 66 -304 81 -403 90
-126 11 -512 11 -630 -1z m-56 -489 l93 -100 288 0 288 0 94 100 93 101 60
-24 c33 -13 173 -68 310 -122 138 -54 251 -99 253 -101 3 -2 38 -124 188 -649
25 -88 43 -166 41 -175 -2 -8 -80 -134 -172 -280 -92 -145 -170 -272 -173
-282 -2 -10 24 -64 62 -128 36 -60 66 -117 66 -126 0 -14 -230 -416 -250 -437
-9 -10 -16 20 -25 110 l-7 63 -119 100 -118 101 34 56 c19 31 32 59 30 62 -3
2 -39 -30 -80 -73 l-75 -78 0 -794 0 -794 -40 0 -40 0 -2 692 c-3 608 -5 693
-18 693 -13 0 -15 -89 -18 -727 l-2 -728 -65 0 -65 0 0 705 c0 698 0 705 -20
705 -20 0 -20 -8 -22 -732 l-3 -733 -90 0 -90 0 -3 708 c-2 699 -2 707 -22
707 -20 0 -20 -7 -20 -710 l0 -710 -90 0 -90 0 -2 733 c-3 724 -3 732 -23 732
-20 0 -20 -8 -23 -702 l-2 -703 -65 0 -65 0 -2 728 c-3 638 -5 727 -18 727
-13 0 -15 -85 -18 -692 l-2 -693 -40 0 -40 0 0 798 0 797 -80 80 c-44 44 -80
75 -80 70 0 -6 16 -36 35 -67 l34 -58 -119 -101 -118 -101 -7 -77 c-4 -43 -10
-83 -15 -90 -5 -9 -21 10 -47 56 -22 37 -79 134 -126 215 -48 81 -87 154 -87
161 0 7 32 66 70 131 l70 117 -181 285 -181 285 82 292 c45 161 97 346 117
412 l35 120 192 75 c105 41 243 96 306 121 63 26 118 48 121 48 3 1 47 -44 98
-99z"/>
<path d="M1132 3105 l-32 -65 128 -205 127 -205 322 0 323 0 6 25 c4 14 5 27
3 29 -5 4 -381 227 -633 375 -105 61 -195 111 -201 111 -6 0 -25 -29 -43 -65z"/>
<path d="M2904 2929 c-225 -133 -411 -243 -413 -245 -2 -2 -1 -15 3 -29 l6
-25 323 0 324 0 127 204 126 205 -32 65 c-18 36 -37 66 -43 66 -6 0 -196 -109
-421 -241z"/>
<path d="M2150 2991 c0 -19 30 -293 35 -328 6 -33 6 -33 65 -33 54 0 60 2 64
23 9 37 38 338 34 342 -2 2 -21 -65 -42 -150 -51 -208 -59 -208 -111 -2 -36
146 -45 175 -45 148z"/>
<path d="M2307 2458 c-4 -29 -7 -75 -7 -103 0 -46 3 -53 41 -86 l42 -36 -18
-51 c-19 -51 -19 -53 2 -114 19 -56 21 -59 22 -30 1 21 20 66 51 119 28 47 50
87 50 89 0 5 -158 244 -170 257 -4 4 -10 -16 -13 -45z"/>
<path d="M2109 2395 c-111 -163 -105 -140 -52 -231 26 -43 50 -97 53 -119 l6
-40 20 65 20 65 -20 49 -20 49 42 36 42 36 -1 75 c-2 140 -5 140 -90 15z"/>
</g>
</svg>
