<?xml version="1.0" encoding="UTF-8" ?>
<!DOCTYPE svg PUBLIC "-//W3C//DTD SVG 1.1//EN" "http://www.w3.org/Graphics/SVG/1.1/DTD/svg11.dtd">
<svg width="512pt" height="512pt" viewBox="0 0 512 512" version="1.1" xmlns="http://www.w3.org/2000/svg">
<g id="#411e4c7d">
<path fill="#411e4c" opacity="0.49" d=" M 266.94 174.83 C 271.07 174.05 275.39 173.16 279.48 174.64 C 276.08 174.95 272.65 174.83 269.29 175.46 C 268.50 176.40 267.69 177.33 266.84 178.21 L 265.75 179.30 C 265.75 177.72 266.34 176.26 266.94 174.83 Z" />
</g>
<g id="#554e95dd">
<path fill="#554e95" opacity="0.87" d=" M 269.29 175.46 C 272.65 174.83 276.08 174.95 279.48 174.64 L 280.23 174.59 C 282.49 175.88 284.27 178.18 283.51 180.94 L 282.69 180.88 C 282.00 179.23 281.95 176.80 279.91 176.18 C 276.48 175.12 272.82 175.61 269.29 175.46 Z" />
</g>
<g id="#2780bcff">
<path fill="#2780bc" opacity="1.00" d=" M 266.84 178.21 C 267.69 177.33 268.50 176.40 269.29 175.46 C 272.82 175.61 276.48 175.12 279.91 176.18 C 281.95 176.80 282.00 179.23 282.69 180.88 L 280.90 180.78 C 280.63 179.76 280.37 178.74 280.10 177.73 C 279.52 177.92 278.35 178.30 277.77 178.50 C 274.82 178.88 271.85 178.48 268.96 177.90 C 268.90 178.27 268.78 179.01 268.72 179.38 C 267.78 182.75 267.90 186.24 268.73 189.62 L 268.56 191.22 C 268.90 191.32 269.58 191.53 269.92 191.63 C 271.44 192.13 273.07 191.84 274.65 191.93 C 274.84 192.47 275.23 193.54 275.42 194.08 C 272.10 194.34 267.69 194.03 266.81 190.06 C 266.93 186.11 266.92 182.15 266.84 178.21 Z" />
</g>
<g id="#04d6d6ff">
<path fill="#04d6d6" opacity="1.00" d=" M 268.96 177.90 C 271.85 178.48 274.82 178.88 277.77 178.50 C 277.44 178.82 276.79 179.46 276.47 179.77 C 276.50 182.29 276.47 184.80 276.41 187.32 C 273.79 187.66 270.07 188.27 269.92 191.63 C 269.58 191.53 268.90 191.32 268.56 191.22 L 268.73 189.62 C 269.32 186.22 269.18 182.78 268.72 179.38 C 268.78 179.01 268.90 178.27 268.96 177.90 M 272.21 181.11 C 271.63 182.73 271.34 185.75 272.64 186.84 C 273.10 185.21 273.77 182.03 272.21 181.11 Z" />
</g>
<g id="#013636ff">
<path fill="#013636" opacity="1.00" d=" M 277.77 178.50 C 278.35 178.30 279.52 177.92 280.10 177.73 C 280.37 178.74 280.63 179.76 280.90 180.78 C 280.94 184.24 281.32 187.84 280.25 191.18 C 278.55 192.07 276.49 191.75 274.65 191.93 C 273.07 191.84 271.44 192.13 269.92 191.63 C 270.07 188.27 273.79 187.66 276.41 187.32 C 276.47 184.80 276.50 182.29 276.47 179.77 C 276.79 179.46 277.44 178.82 277.77 178.50 Z" />
<path fill="#013636" opacity="1.00" d=" M 187.18 204.03 C 195.32 202.64 205.21 202.84 210.93 209.73 C 211.67 211.29 212.40 212.85 213.12 214.41 C 211.75 214.74 210.42 215.16 209.11 215.66 C 207.71 212.05 205.02 209.08 201.62 207.24 C 201.60 206.62 201.57 205.40 201.55 204.79 C 197.01 202.97 191.92 203.47 187.18 204.03 Z" />
<path fill="#013636" opacity="1.00" d=" M 226.87 204.47 C 234.88 203.01 244.37 203.10 250.75 208.92 C 253.23 212.67 254.96 216.94 255.40 221.44 C 255.12 224.27 254.88 227.12 254.96 229.97 C 255.17 244.88 254.75 259.80 255.24 274.71 C 255.13 275.02 254.93 275.64 254.83 275.95 C 251.78 276.14 248.72 276.22 245.67 276.03 C 245.33 275.95 244.66 275.78 244.32 275.70 C 244.31 275.43 244.29 274.89 244.28 274.61 C 245.15 273.97 246.04 273.34 246.94 272.72 L 247.72 272.21 C 248.58 272.21 250.31 272.22 251.18 272.22 C 251.22 257.49 251.18 242.77 251.20 228.05 C 251.18 222.90 250.78 217.49 248.06 212.98 C 245.63 208.88 241.04 207.00 237.25 204.46 C 233.79 204.38 230.32 204.24 226.87 204.47 Z" />
<path fill="#013636" opacity="1.00" d=" M 62.91 204.83 C 63.36 204.86 64.25 204.91 64.70 204.94 C 64.72 205.58 64.77 206.86 64.80 207.50 C 64.82 209.61 65.18 211.70 65.68 213.75 C 65.09 215.65 63.08 215.55 61.46 215.80 C 60.96 213.37 60.55 210.90 60.80 208.42 C 61.48 207.20 62.18 206.01 62.91 204.83 Z" />
<path fill="#013636" opacity="1.00" d=" M 171.93 204.65 C 174.03 204.64 174.12 206.43 174.20 208.09 C 174.39 209.92 174.56 211.77 174.66 213.61 C 174.51 213.83 174.19 214.27 174.04 214.49 C 173.17 214.56 171.42 214.68 170.55 214.75 C 170.35 212.79 170.16 210.83 170.18 208.87 C 170.73 207.45 171.34 206.05 171.93 204.65 Z" />
<path fill="#013636" opacity="1.00" d=" M 279.04 205.21 C 279.39 205.14 280.09 205.02 280.43 204.96 C 280.53 205.67 280.72 207.09 280.82 207.80 C 281.06 223.20 280.86 238.60 280.93 254.01 C 280.84 261.25 281.16 268.51 280.65 275.75 C 277.38 276.32 274.05 276.45 270.77 275.89 C 270.44 275.81 269.78 275.65 269.45 275.57 C 269.43 275.32 269.41 274.83 269.39 274.59 C 271.43 273.01 273.96 272.50 276.35 271.71 C 276.56 253.82 276.37 235.92 276.44 218.03 C 276.51 214.01 276.15 209.95 276.80 205.96 C 277.36 205.77 278.48 205.39 279.04 205.21 Z" />
<path fill="#013636" opacity="1.00" d=" M 414.07 205.00 C 414.77 204.97 416.16 204.91 416.86 204.88 L 416.77 206.04 C 416.57 206.30 416.16 206.82 415.96 207.09 C 411.55 214.80 406.36 222.03 401.51 229.46 C 399.55 232.58 396.93 235.43 395.93 239.04 C 395.98 240.87 397.02 242.45 397.94 243.95 C 402.47 250.79 407.07 257.58 411.52 264.47 C 413.62 267.27 415.01 271.79 419.25 271.56 C 419.32 272.18 419.48 273.42 419.56 274.04 C 420.70 273.64 421.84 273.25 422.96 272.77 L 423.62 272.40 C 440.84 272.09 458.08 272.42 475.32 272.24 C 475.79 270.12 476.26 268.00 476.72 265.88 C 477.14 265.86 478.00 265.80 478.43 265.78 L 479.04 265.86 C 479.67 269.18 479.90 272.59 479.21 275.92 C 461.27 276.61 443.30 275.73 425.36 276.38 C 419.49 274.98 413.61 277.03 407.72 276.49 C 406.54 276.27 405.38 276.04 404.22 275.82 C 401.82 273.03 399.66 270.02 398.19 266.64 C 399.71 269.11 401.30 271.53 402.98 273.90 C 404.00 273.52 405.01 273.09 406.00 272.61 C 407.70 272.38 409.42 272.28 411.14 272.08 C 405.02 262.18 398.31 252.67 392.05 242.87 C 390.49 240.53 390.48 237.44 392.07 235.13 C 395.67 229.42 399.58 223.92 403.25 218.26 C 405.60 214.82 407.50 211.01 410.54 208.11 C 411.70 207.05 412.89 206.03 414.07 205.00 Z" />
<path fill="#013636" opacity="1.00" d=" M 337.20 209.04 C 337.62 208.40 338.46 207.12 338.89 206.48 C 339.40 206.56 340.44 206.70 340.95 206.77 C 341.45 207.12 342.43 207.83 342.92 208.18 C 346.27 211.52 348.55 215.85 349.25 220.54 C 348.68 227.35 349.19 234.17 349.01 240.99 C 349.13 252.24 348.83 263.49 349.20 274.73 C 349.11 275.04 348.91 275.64 348.82 275.95 C 345.76 276.11 342.70 276.15 339.64 276.04 C 339.30 275.98 338.63 275.84 338.29 275.78 C 338.30 275.47 338.30 274.84 338.31 274.53 C 339.17 273.91 340.05 273.31 340.94 272.72 L 341.72 272.22 C 342.58 272.22 344.31 272.22 345.17 272.22 C 345.21 256.81 345.21 241.41 345.18 226.01 C 345.21 219.64 343.14 212.32 337.20 209.04 Z" />
<path fill="#013636" opacity="1.00" d=" M 110.35 211.48 C 118.38 208.40 128.12 208.81 135.35 213.76 C 135.45 215.10 135.60 216.45 135.80 217.78 C 134.83 217.46 133.87 217.13 132.92 216.78 C 132.13 216.43 131.34 216.08 130.55 215.75 C 124.94 213.14 118.22 213.48 112.54 215.65 C 107.75 217.61 106.84 223.19 103.84 226.84 C 101.11 226.94 98.41 226.42 95.75 225.86 C 95.15 225.68 93.96 225.33 93.37 225.15 C 95.55 223.13 98.33 222.26 101.27 222.36 C 103.15 217.97 105.62 213.29 110.35 211.48 Z" />
<path fill="#013636" opacity="1.00" d=" M 309.82 214.74 C 314.89 210.52 321.90 209.30 328.23 210.90 C 330.84 211.78 332.98 213.61 335.22 215.17 C 335.36 216.44 335.54 217.71 335.74 218.98 C 333.64 218.12 331.61 217.11 329.55 216.16 C 322.23 212.15 311.86 216.13 308.84 223.86 C 306.88 228.64 306.76 233.89 306.62 238.98 C 306.50 250.20 306.70 261.42 306.51 272.63 C 306.28 273.75 306.03 274.86 305.77 275.98 C 303.04 276.17 300.31 276.19 297.58 276.18 C 297.01 276.07 295.88 275.86 295.31 275.75 C 295.32 275.43 295.33 274.79 295.34 274.47 C 296.16 273.87 296.99 273.28 297.84 272.72 L 298.82 272.21 C 299.61 272.22 301.21 272.22 302.00 272.23 C 302.10 259.81 301.85 247.38 302.15 234.97 C 302.48 228.46 303.18 221.12 308.14 216.33 C 308.56 215.93 309.40 215.13 309.82 214.74 Z" />
<path fill="#013636" opacity="1.00" d=" M 219.90 213.69 C 224.16 210.27 229.77 209.92 235.00 210.44 C 237.17 212.24 238.81 214.52 239.52 217.28 L 238.50 216.71 C 232.85 213.07 224.79 214.32 220.45 219.43 C 215.85 224.37 215.72 231.59 215.79 237.95 C 215.94 250.16 215.59 262.38 215.97 274.59 C 213.10 277.05 209.10 276.04 205.67 276.00 C 205.13 275.86 204.04 275.59 203.49 275.46 L 204.22 274.67 C 205.06 273.99 205.93 273.33 206.83 272.73 L 207.70 272.22 C 208.57 272.22 210.31 272.22 211.18 272.22 C 211.25 259.12 211.13 246.02 211.23 232.92 C 211.23 227.94 212.49 223.06 214.65 218.58 C 216.44 217.00 218.17 215.35 219.90 213.69 Z" />
<path fill="#013636" opacity="1.00" d=" M 383.19 248.25 C 384.72 246.02 387.53 246.67 389.61 247.61 C 389.58 248.40 389.52 249.99 389.49 250.78 C 386.86 249.27 385.59 251.74 384.73 253.80 C 381.93 259.19 378.23 264.04 375.06 269.20 C 373.44 271.47 372.20 274.17 369.90 275.84 C 366.57 276.83 363.03 276.14 359.63 276.12 C 359.05 276.09 357.90 276.03 357.33 276.00 C 358.51 274.32 360.43 273.52 362.26 272.78 C 362.58 272.67 363.23 272.44 363.55 272.33 C 365.07 272.02 367.15 272.69 368.09 271.04 C 373.32 263.58 377.92 255.67 383.19 248.25 Z" />
</g>
<g id="#684d9ef1">
<path fill="#684d9e" opacity="0.95" d=" M 265.75 179.30 L 266.84 178.21 C 266.92 182.15 266.93 186.11 266.81 190.06 L 265.60 189.53 C 265.77 186.12 265.49 182.70 265.75 179.30 Z" />
</g>
<g id="#3d4ca2ff">
<path fill="#3d4ca2" opacity="1.00" d=" M 268.73 189.62 C 267.90 186.24 267.78 182.75 268.72 179.38 C 269.18 182.78 269.32 186.22 268.73 189.62 Z" />
</g>
<g id="#a3f1f1ff">
<path fill="#a3f1f1" opacity="1.00" d=" M 272.21 181.11 C 273.77 182.03 273.10 185.21 272.64 186.84 C 271.34 185.75 271.63 182.73 272.21 181.11 Z" />
</g>
<g id="#133696ff">
<path fill="#133696" opacity="1.00" d=" M 280.90 180.78 L 282.69 180.88 L 283.51 180.94 C 283.08 185.59 284.03 190.98 279.95 194.32 C 278.44 194.20 276.93 194.13 275.42 194.08 C 275.23 193.54 274.84 192.47 274.65 191.93 C 276.49 191.75 278.55 192.07 280.25 191.18 C 281.32 187.84 280.94 184.24 280.90 180.78 Z" />
</g>
<g id="#1a0823c5">
<path fill="#1a0823" opacity="0.77" d=" M 283.51 180.94 L 284.24 179.74 C 285.20 183.99 285.44 188.52 284.82 192.82 C 284.61 193.11 284.18 193.68 283.97 193.96 C 283.31 194.08 281.99 194.31 281.33 194.42 L 279.95 194.32 C 284.03 190.98 283.08 185.59 283.51 180.94 Z" />
</g>
<g id="#0a020942">
<path fill="#0a0209" opacity="0.26" d=" M 285.43 180.62 L 286.96 180.76 C 287.35 185.33 287.91 190.23 286.69 194.67 C 281.30 196.05 275.63 195.74 270.11 195.46 C 269.77 195.24 269.08 194.80 268.74 194.58 C 272.89 195.49 277.19 195.34 281.33 194.42 C 281.99 194.31 283.31 194.08 283.97 193.96 C 284.44 193.91 285.38 193.79 285.85 193.74 C 286.38 189.35 284.96 185.00 285.43 180.62 Z" />
</g>
<g id="#4424579b">
<path fill="#442457" opacity="0.61" d=" M 265.60 189.53 L 266.81 190.06 C 267.69 194.03 272.10 194.34 275.42 194.08 C 276.93 194.13 278.44 194.20 279.95 194.32 L 281.33 194.42 C 277.19 195.34 272.89 195.49 268.74 194.58 C 268.29 194.49 267.38 194.30 266.93 194.20 C 266.34 192.69 265.81 191.15 265.60 189.53 Z" />
</g>
<g id="#4e1f568f">
<path fill="#4e1f56" opacity="0.56" d=" M 71.17 201.93 C 72.31 200.51 74.40 200.18 76.11 199.77 C 81.75 198.96 87.72 200.30 92.34 203.66 C 93.74 204.60 93.68 206.39 93.36 207.86 C 94.52 207.98 95.68 208.10 96.84 208.21 C 103.97 201.36 114.37 199.27 123.96 199.54 C 131.30 199.34 138.97 200.81 145.00 205.19 C 148.31 207.62 150.42 211.22 152.33 214.77 L 152.29 215.04 C 152.14 215.79 151.84 217.28 151.70 218.03 C 150.91 214.41 149.26 211.00 146.75 208.28 C 140.60 202.06 131.47 200.35 123.05 200.56 C 113.27 200.46 102.60 203.00 96.07 210.80 C 95.24 209.94 94.41 209.08 93.55 208.24 C 93.27 208.98 92.71 210.46 92.42 211.20 C 92.53 210.44 92.73 208.90 92.83 208.13 C 92.15 203.39 87.04 201.71 82.97 200.96 C 78.71 200.04 74.37 201.09 70.54 203.01 L 71.17 201.93 Z" />
<path fill="#4e1f56" opacity="0.56" d=" M 227.93 200.13 C 235.38 198.71 243.77 199.45 249.97 204.19 C 251.64 205.58 253.71 207.01 253.86 209.40 C 253.55 209.12 252.94 208.56 252.64 208.28 C 246.25 200.59 235.04 198.98 225.87 201.81 C 221.22 203.24 217.59 206.59 213.96 209.66 C 211.02 206.88 208.18 203.75 204.30 202.30 C 199.77 200.29 194.72 200.64 189.90 200.55 L 189.20 199.74 C 194.45 199.43 199.94 199.21 204.87 201.37 C 208.44 202.72 211.34 205.28 213.95 207.99 C 218.08 204.54 222.54 201.21 227.93 200.13 Z" />
<path fill="#4e1f56" opacity="0.56" d=" M 315.44 201.54 C 320.01 198.93 325.78 199.53 330.90 199.74 C 339.18 200.89 348.49 205.91 350.49 214.52 C 348.68 212.09 346.99 209.53 344.90 207.32 C 336.90 199.98 324.65 198.91 314.76 202.64 L 315.44 201.54 Z" />
<path fill="#4e1f56" opacity="0.56" d=" M 355.81 201.82 C 360.12 200.65 364.62 200.67 369.04 200.95 C 371.31 201.14 373.72 201.93 375.11 203.87 C 379.36 209.13 382.49 215.19 386.43 220.66 C 387.68 221.34 388.32 219.64 388.96 218.92 C 392.63 213.60 395.86 207.94 399.89 202.88 C 403.94 199.85 409.36 201.07 414.06 200.86 C 416.00 200.58 417.46 202.03 419.19 202.56 C 421.42 201.92 423.62 201.00 426.00 201.14 C 437.68 201.07 449.36 201.15 461.04 201.12 C 466.91 201.17 472.80 200.87 478.64 201.60 C 480.14 203.06 480.94 204.98 481.35 207.01 L 481.16 207.98 C 480.39 211.02 480.42 214.51 477.96 216.81 C 479.74 214.23 480.58 211.18 480.33 208.05 C 480.39 206.66 480.29 204.89 479.02 204.04 C 477.36 202.57 475.24 201.78 473.01 201.97 C 456.66 202.03 440.32 201.92 423.97 202.05 C 422.51 201.70 421.35 202.80 420.88 204.07 C 419.44 204.61 418.14 204.07 416.94 203.29 L 416.34 202.96 C 412.06 201.20 406.97 201.80 402.51 202.68 C 399.91 203.99 398.43 206.63 396.85 208.95 C 393.70 213.84 390.39 218.62 387.15 223.45 C 383.15 218.47 380.13 212.81 376.48 207.58 C 375.13 205.72 373.80 203.63 371.62 202.69 C 367.82 201.55 363.77 201.95 359.87 202.12 C 358.32 202.08 357.08 203.16 356.46 204.51 C 356.38 204.78 356.23 205.33 356.15 205.61 C 356.05 207.07 356.39 208.42 357.16 209.65 C 363.08 219.04 369.55 228.10 375.37 237.54 C 376.91 239.67 374.84 241.90 373.79 243.72 C 367.39 253.05 361.55 262.77 354.79 271.84 C 355.02 271.03 355.49 269.42 355.72 268.61 C 362.10 259.89 367.73 250.65 373.81 241.72 C 374.85 240.47 375.08 238.56 374.03 237.23 C 367.87 227.96 361.80 218.64 355.61 209.40 C 353.91 207.17 354.52 204.09 355.81 201.82 Z" />
<path fill="#4e1f56" opacity="0.56" d=" M 162.53 201.75 C 166.73 200.81 171.11 201.14 175.34 201.74 C 176.19 202.81 177.04 203.87 177.91 204.93 L 177.54 205.14 C 174.21 201.55 169.07 200.81 164.52 202.30 C 163.32 202.98 162.12 203.87 161.65 205.23 C 161.48 205.57 161.15 206.25 160.98 206.60 L 159.76 207.16 C 160.23 205.20 160.48 202.76 162.53 201.75 Z" />
<path fill="#4e1f56" opacity="0.56" d=" M 120.96 202.99 C 128.52 202.75 136.68 203.29 143.03 207.88 C 141.94 207.29 140.84 206.74 139.72 206.22 C 134.24 203.80 128.07 202.69 122.11 203.33 C 117.91 204.37 113.32 203.07 109.36 205.13 C 112.90 203.21 117.05 203.35 120.96 202.99 Z" />
<path fill="#4e1f56" opacity="0.56" d=" M 115.94 216.84 C 119.86 216.17 123.86 216.46 127.81 216.67 C 132.50 217.62 135.92 222.01 135.26 226.83 C 135.38 228.65 133.43 229.30 132.00 229.64 C 127.84 230.64 123.59 231.20 119.38 231.98 C 111.58 232.64 103.33 233.92 96.97 238.86 C 92.92 241.99 89.98 246.49 88.70 251.45 C 87.61 255.10 87.64 259.02 88.61 262.70 C 90.86 273.43 101.72 280.42 112.35 280.08 C 114.70 280.30 117.06 280.31 119.42 280.30 C 115.65 281.34 111.71 281.16 107.86 280.79 C 100.38 279.94 93.12 275.59 89.67 268.77 C 86.81 263.65 86.87 257.55 87.54 251.90 C 88.99 243.43 95.79 236.57 103.77 233.85 C 113.48 230.54 124.02 231.05 133.79 228.00 C 135.09 225.73 133.85 222.60 132.54 220.51 C 129.23 216.98 124.04 217.52 119.65 217.32 C 118.41 217.15 117.18 216.99 115.94 216.84 Z" />
<path fill="#4e1f56" opacity="0.56" d=" M 186.93 217.67 C 190.08 216.68 193.37 216.82 196.56 217.52 C 200.48 220.84 200.72 226.27 200.83 231.01 C 200.87 244.02 200.83 257.03 200.83 270.04 C 200.91 272.74 200.76 276.19 203.49 277.73 C 206.89 279.31 210.78 278.52 214.37 278.29 C 216.46 277.84 218.01 276.12 217.86 273.92 C 218.16 259.51 217.77 245.09 218.07 230.68 C 218.80 227.27 219.56 223.69 221.88 220.96 C 219.89 224.66 218.33 228.73 218.41 233.00 C 218.40 246.01 218.41 259.01 218.43 272.02 C 218.39 274.32 218.37 277.42 215.94 278.57 C 212.54 280.03 208.73 279.46 205.14 279.45 C 201.74 279.54 199.63 276.10 199.74 273.01 C 199.61 258.34 199.77 243.66 199.67 228.99 C 199.56 225.83 199.30 222.35 197.22 219.80 C 195.70 217.96 193.11 218.03 190.96 217.74 C 189.95 217.72 187.94 217.69 186.93 217.67 Z" />
<path fill="#4e1f56" opacity="0.56" d=" M 448.24 225.04 C 449.34 223.57 450.62 222.21 452.39 221.55 C 443.84 233.14 434.20 243.92 425.24 255.21 C 422.29 259.10 418.28 262.48 416.99 267.37 C 415.22 265.98 413.78 264.24 412.65 262.31 C 408.16 255.06 403.04 248.21 398.72 240.86 C 399.44 241.54 400.17 242.22 400.90 242.90 C 406.45 249.87 410.76 257.75 415.95 265.00 C 426.28 251.34 437.65 238.49 448.24 225.04 Z" />
<path fill="#4e1f56" opacity="0.56" d=" M 387.18 255.23 C 387.97 256.12 388.76 257.02 389.52 257.95 C 393.28 263.41 396.52 269.22 400.25 274.71 C 401.18 276.17 402.68 277.11 404.01 278.18 L 404.64 279.08 C 403.10 278.62 401.07 278.69 400.32 276.97 C 396.53 270.91 392.40 265.02 388.99 258.75 C 388.74 257.12 387.84 256.34 386.30 256.41 C 386.52 256.11 386.96 255.52 387.18 255.23 Z" />
</g>
<g id="#37123860">
<path fill="#371238" opacity="0.38" d=" M 53.39 201.61 C 58.13 200.20 63.57 200.24 67.96 202.74 C 69.03 202.47 70.10 202.20 71.17 201.93 L 70.54 203.01 C 70.17 203.40 69.44 204.18 69.07 204.57 C 68.38 204.42 67.01 204.10 66.33 203.94 C 63.06 200.85 57.51 201.13 53.74 203.13 C 53.52 203.34 53.08 203.78 52.87 203.99 C 52.24 204.70 51.63 205.43 51.04 206.17 C 51.25 204.45 51.39 202.21 53.39 201.61 Z" />
</g>
<g id="#2281c0ff">
<path fill="#2281c0" opacity="1.00" d=" M 70.54 203.01 C 74.37 201.09 78.71 200.04 82.97 200.96 C 87.04 201.71 92.15 203.39 92.83 208.13 L 91.40 207.20 C 88.77 205.42 85.98 203.85 82.77 203.47 C 79.68 203.45 76.48 203.42 73.62 204.75 C 72.07 205.82 70.59 207.00 69.16 208.23 C 67.70 207.98 66.25 207.74 64.80 207.50 C 64.77 206.86 64.72 205.58 64.70 204.94 C 64.25 204.91 63.36 204.86 62.91 204.83 C 60.78 204.74 58.65 204.82 56.52 204.98 C 56.02 205.02 55.02 205.10 54.53 205.14 C 55.63 211.38 55.10 217.72 55.19 224.02 C 55.27 240.84 55.04 257.66 55.31 274.48 C 55.31 274.81 55.29 275.46 55.29 275.79 C 55.62 275.86 56.29 275.99 56.62 276.06 C 58.37 276.45 60.09 276.93 61.80 277.43 C 61.68 277.68 61.43 278.19 61.30 278.45 C 57.78 278.67 54.14 277.96 51.95 274.96 C 52.16 256.01 51.97 237.04 52.04 218.08 C 52.12 213.38 51.58 208.58 52.87 203.99 C 53.08 203.78 53.52 203.34 53.74 203.13 C 57.94 202.45 62.31 202.37 66.33 203.94 C 66.33 205.51 68.38 205.96 69.07 204.57 C 69.44 204.18 70.17 203.40 70.54 203.01 Z" />
<path fill="#2281c0" opacity="1.00" d=" M 96.07 210.80 C 102.60 203.00 113.27 200.46 123.05 200.56 C 131.47 200.35 140.60 202.06 146.75 208.28 C 146.32 208.51 145.46 208.98 145.03 209.21 C 144.53 208.88 143.53 208.21 143.03 207.88 C 136.68 203.29 128.52 202.75 120.96 202.99 C 117.05 203.35 112.90 203.21 109.36 205.13 L 108.62 205.49 C 104.33 207.53 100.16 209.98 97.05 213.65 C 96.70 213.09 95.98 211.98 95.62 211.43 L 96.07 210.80 Z" />
<path fill="#2281c0" opacity="1.00" d=" M 127.81 216.67 C 128.49 216.44 129.86 215.98 130.55 215.75 C 131.34 216.08 132.13 216.43 132.92 216.78 C 137.28 220.48 138.51 227.03 135.11 231.79 C 132.62 232.65 130.03 233.17 127.45 233.65 C 124.70 233.42 122.03 232.73 119.38 231.98 C 123.59 231.20 127.84 230.64 132.00 229.64 C 133.43 229.30 135.38 228.65 135.26 226.83 C 135.92 222.01 132.50 217.62 127.81 216.67 Z" />
<path fill="#2281c0" opacity="1.00" d=" M 196.56 217.52 C 197.02 217.33 197.94 216.94 198.40 216.75 C 199.61 217.43 200.81 218.13 202.01 218.84 C 203.34 221.12 203.50 223.75 203.66 226.32 C 202.36 235.15 203.29 244.11 203.02 253.00 C 203.18 260.49 202.56 268.00 203.49 275.46 C 204.04 275.59 205.13 275.86 205.67 276.00 C 208.57 276.77 211.47 277.53 214.37 278.29 C 210.78 278.52 206.89 279.31 203.49 277.73 C 200.76 276.19 200.91 272.74 200.83 270.04 C 200.83 257.03 200.87 244.02 200.83 231.01 C 200.72 226.27 200.48 220.84 196.56 217.52 Z" />
<path fill="#2281c0" opacity="1.00" d=" M 135.40 245.96 C 135.88 245.61 136.85 244.92 137.34 244.57 C 137.05 249.68 136.75 255.25 133.28 259.36 C 128.79 265.10 121.04 267.85 113.90 266.83 C 113.52 266.58 112.76 266.08 112.39 265.84 C 115.48 265.66 118.72 265.94 121.61 264.59 C 125.50 263.23 129.58 261.53 131.99 257.99 C 134.66 254.55 134.52 250.02 135.40 245.96 Z" />
<path fill="#2281c0" opacity="1.00" d=" M 389.52 257.95 C 389.87 257.69 390.57 257.15 390.92 256.88 C 392.19 258.83 393.71 260.59 395.41 262.18 C 396.41 263.61 397.34 265.10 398.19 266.64 C 399.66 270.02 401.82 273.03 404.22 275.82 C 405.38 276.04 406.54 276.27 407.72 276.49 C 408.58 277.04 409.43 277.60 410.28 278.19 C 408.19 278.24 406.10 278.24 404.01 278.18 C 402.68 277.11 401.18 276.17 400.25 274.71 C 396.52 269.22 393.28 263.41 389.52 257.95 Z" />
</g>
<g id="#503775b3">
<path fill="#503775" opacity="0.70" d=" M 177.91 204.93 C 181.38 202.77 185.14 200.06 189.44 200.58 C 185.11 202.00 181.07 204.13 177.17 206.47 C 175.91 205.17 174.67 203.86 173.35 202.63 C 170.43 202.15 167.47 202.07 164.52 202.30 C 169.07 200.81 174.21 201.55 177.54 205.14 L 177.91 204.93 Z" />
</g>
<g id="#2471b7ff">
<path fill="#2471b7" opacity="1.00" d=" M 189.44 200.58 L 189.90 200.55 C 194.72 200.64 199.77 200.29 204.30 202.30 C 208.18 203.75 211.02 206.88 213.96 209.66 C 217.59 206.59 221.22 203.24 225.87 201.81 C 235.04 198.98 246.25 200.59 252.64 208.28 C 252.17 208.44 251.22 208.76 250.75 208.92 C 244.37 203.10 234.88 203.01 226.87 204.47 C 222.84 206.08 219.09 208.48 216.13 211.66 C 214.32 211.24 212.50 210.76 210.93 209.73 C 205.21 202.84 195.32 202.64 187.18 204.03 C 186.06 204.49 185.00 205.07 183.95 205.66 C 182.36 206.53 180.84 207.50 179.28 208.42 C 177.58 208.35 175.89 208.21 174.20 208.09 C 174.12 206.43 174.03 204.64 171.93 204.65 C 172.28 204.14 172.99 203.13 173.35 202.63 C 174.67 203.86 175.91 205.17 177.17 206.47 C 181.07 204.13 185.11 202.00 189.44 200.58 Z" />
</g>
<g id="#11020bb3">
<path fill="#11020b" opacity="0.70" d=" M 266.84 201.84 C 271.78 201.27 276.75 201.43 281.70 201.65 C 283.66 203.88 283.74 207.26 286.42 208.95 C 286.48 232.16 286.48 255.36 286.42 278.57 C 284.55 278.69 282.58 278.84 280.85 278.05 C 282.14 276.27 283.67 274.42 283.40 272.06 C 283.44 250.66 283.35 229.25 283.43 207.85 C 283.58 206.50 283.49 204.86 282.24 204.02 C 282.00 203.82 281.51 203.42 281.26 203.22 C 279.13 200.88 275.76 201.54 272.95 201.49 C 270.51 201.32 268.53 202.83 266.53 203.95 C 266.61 203.43 266.76 202.37 266.84 201.84 Z" />
<path fill="#11020b" opacity="0.70" d=" M 151.70 218.03 C 151.84 217.28 152.14 215.79 152.29 215.04 C 154.66 218.16 155.05 222.20 155.44 225.98 C 155.48 235.97 155.40 245.97 155.57 255.96 C 155.44 263.51 155.43 271.45 158.81 278.39 C 156.54 279.09 154.18 279.53 151.79 279.34 L 152.69 278.41 C 153.39 277.62 154.06 276.81 154.70 275.98 C 154.61 270.59 152.49 265.47 152.61 260.06 C 152.59 252.04 152.37 244.02 152.39 235.99 C 152.29 230.00 152.83 223.95 151.70 218.03 Z" />
</g>
<g id="#3612375f">
<path fill="#361237" opacity="0.37" d=" M 293.44 201.58 C 298.77 200.20 305.75 199.73 309.43 204.72 C 309.12 204.90 308.50 205.26 308.19 205.43 C 307.69 205.03 306.68 204.21 306.18 203.80 C 302.87 200.86 297.43 201.15 293.71 203.13 C 293.52 203.32 293.13 203.70 292.94 203.89 C 292.28 204.64 291.63 205.42 291.02 206.21 C 291.24 204.46 291.37 202.15 293.44 201.58 Z" />
</g>
<g id="#1d7dbdff">
<path fill="#1d7dbd" opacity="1.00" d=" M 314.76 202.64 C 324.65 198.91 336.90 199.98 344.90 207.32 C 344.40 207.54 343.42 207.96 342.92 208.18 C 342.43 207.83 341.45 207.12 340.95 206.77 C 334.53 202.03 325.48 201.35 318.12 204.14 C 317.04 204.60 316.01 205.16 314.99 205.72 C 313.41 206.58 311.88 207.51 310.33 208.41 C 308.55 208.37 306.78 208.27 305.01 208.18 C 304.91 207.38 304.71 205.78 304.61 204.98 C 304.18 204.96 303.31 204.91 302.87 204.89 C 300.75 204.84 298.63 204.92 296.52 204.94 C 296.00 204.94 294.97 204.93 294.45 204.93 C 295.68 211.56 295.06 218.31 295.19 225.01 C 295.27 241.49 295.02 257.98 295.34 274.47 C 295.33 274.79 295.32 275.43 295.31 275.75 C 295.88 275.86 297.01 276.07 297.58 276.18 C 299.08 276.58 300.56 277.05 302.03 277.54 L 301.50 278.46 C 297.94 278.61 294.09 278.09 291.97 274.88 C 292.12 255.93 291.98 236.97 292.03 218.02 C 292.13 213.31 291.52 208.47 292.94 203.89 C 293.13 203.70 293.52 203.32 293.71 203.13 C 297.87 202.46 302.13 202.52 306.18 203.80 C 306.56 204.85 306.95 205.90 307.35 206.95 C 309.93 205.72 312.51 204.43 314.76 202.64 Z" />
<path fill="#1d7dbd" opacity="1.00" d=" M 327.45 216.74 C 327.98 216.60 329.03 216.31 329.55 216.16 C 331.61 217.11 333.64 218.12 335.74 218.98 C 338.08 224.34 337.36 230.31 338.06 235.99 C 338.33 248.83 337.85 261.69 338.31 274.53 C 338.30 274.84 338.30 275.47 338.29 275.78 C 338.63 275.84 339.30 275.98 339.64 276.04 C 342.56 276.70 345.46 277.48 348.39 278.10 C 344.76 278.30 340.86 279.22 337.45 277.51 C 335.55 276.42 335.04 274.15 335.06 272.12 C 334.85 258.41 335.31 244.69 334.82 230.99 C 334.40 227.30 334.80 222.80 331.57 220.22 L 331.13 219.81 C 331.06 219.75 330.91 219.63 330.84 219.57 C 330.47 219.28 329.73 218.69 329.36 218.40 C 328.88 217.99 327.93 217.16 327.45 216.74 Z" />
</g>
<g id="#5b549eea">
<path fill="#5b549e" opacity="0.92" d=" M 53.74 203.13 C 57.51 201.13 63.06 200.85 66.33 203.94 C 62.31 202.37 57.94 202.45 53.74 203.13 Z" />
<path fill="#5b549e" opacity="0.92" d=" M 293.71 203.13 C 297.43 201.15 302.87 200.86 306.18 203.80 C 302.13 202.52 297.87 202.46 293.71 203.13 Z" />
</g>
<g id="#6552a2f3">
<path fill="#6552a2" opacity="0.95" d=" M 266.53 203.95 C 268.53 202.83 270.51 201.32 272.95 201.49 C 275.76 201.54 279.13 200.88 281.26 203.22 C 277.64 202.67 273.84 202.04 270.24 203.07 C 267.77 203.90 266.68 206.59 266.92 209.04 C 266.86 227.38 266.97 245.72 266.90 264.06 C 266.81 268.47 266.77 272.92 267.73 277.26 C 266.23 275.12 265.78 272.52 265.84 269.96 C 265.81 254.65 265.87 239.35 265.83 224.04 C 265.90 217.56 265.50 211.05 266.46 204.61 L 266.53 203.95 Z" />
</g>
<g id="#553d7fc3">
<path fill="#553d7f" opacity="0.76" d=" M 309.43 204.72 C 311.33 203.48 313.28 202.30 315.44 201.54 L 314.76 202.64 C 312.51 204.43 309.93 205.72 307.35 206.95 C 306.95 205.90 306.56 204.85 306.18 203.80 C 306.68 204.21 307.69 205.03 308.19 205.43 C 308.50 205.26 309.12 204.90 309.43 204.72 Z" />
</g>
<g id="#216387ff">
<path fill="#216387" opacity="1.00" d=" M 318.12 204.14 C 325.48 201.35 334.53 202.03 340.95 206.77 C 340.44 206.70 339.40 206.56 338.89 206.48 C 338.46 207.12 337.62 208.40 337.20 209.04 C 335.83 208.46 334.43 207.95 333.03 207.46 C 333.72 207.13 335.10 206.47 335.79 206.14 C 330.78 202.35 323.94 203.92 318.12 204.14 Z" />
</g>
<g id="#5764affb">
<path fill="#5764af" opacity="1.00" d=" M 356.46 204.51 C 357.08 203.16 358.32 202.08 359.87 202.12 C 363.77 201.95 367.82 201.55 371.62 202.69 C 367.10 202.86 362.34 202.02 358.07 203.92 C 357.67 204.07 356.87 204.36 356.46 204.51 Z" />
</g>
<g id="#5863aefb">
<path fill="#5863ae" opacity="1.00" d=" M 402.51 202.68 C 406.97 201.80 412.06 201.20 416.34 202.96 C 411.74 202.57 407.12 202.70 402.51 202.68 Z" />
</g>
<g id="#5d519ce8">
<path fill="#5d519c" opacity="0.91" d=" M 420.88 204.07 C 421.35 202.80 422.51 201.70 423.97 202.05 L 424.29 202.71 C 423.33 203.63 422.19 204.08 420.88 204.07 Z" />
</g>
<g id="#5269b2fb">
<path fill="#5269b2" opacity="1.00" d=" M 423.97 202.05 C 440.32 201.92 456.66 202.03 473.01 201.97 C 475.24 201.78 477.36 202.57 479.02 204.04 C 473.20 202.09 467.01 202.85 461.00 202.75 C 448.76 202.78 436.53 202.74 424.29 202.71 L 423.97 202.05 Z" />
</g>
<g id="#2a80b5ff">
<path fill="#2a80b5" opacity="1.00" d=" M 161.65 205.23 C 162.12 203.87 163.32 202.98 164.52 202.30 C 167.47 202.07 170.43 202.15 173.35 202.63 C 172.99 203.13 172.28 204.14 171.93 204.65 C 169.83 204.94 167.72 205.10 165.61 205.13 C 165.10 205.00 164.08 204.73 163.57 204.60 C 164.59 212.35 164.06 220.18 164.18 227.97 C 164.27 243.51 164.02 259.05 164.31 274.58 C 164.32 274.86 164.33 275.42 164.34 275.70 C 164.66 275.79 165.31 275.95 165.63 276.03 C 168.48 276.77 171.33 277.51 174.23 278.05 C 170.01 278.45 162.92 280.04 161.39 274.59 C 162.47 267.11 161.73 259.55 161.95 252.03 C 161.61 236.43 162.39 220.81 161.65 205.23 Z" />
</g>
<g id="#2b71b6ff">
<path fill="#2b71b6" opacity="1.00" d=" M 270.24 203.07 C 273.84 202.04 277.64 202.67 281.26 203.22 C 281.51 203.42 282.00 203.82 282.24 204.02 C 281.74 205.40 281.92 206.67 282.77 207.84 L 280.82 207.80 C 280.72 207.09 280.53 205.67 280.43 204.96 C 280.09 205.02 279.39 205.14 279.04 205.21 C 275.59 206.03 272.06 205.62 268.70 204.59 C 269.61 212.71 269.04 220.88 269.19 229.03 C 269.32 244.21 268.94 259.41 269.39 274.59 C 269.41 274.83 269.43 275.32 269.45 275.57 C 269.78 275.65 270.44 275.81 270.77 275.89 C 272.77 276.35 274.65 277.17 276.49 278.08 C 274.22 278.21 271.96 278.35 269.71 278.53 C 269.44 278.16 268.90 277.42 268.63 277.05 L 267.73 277.26 C 266.77 272.92 266.81 268.47 266.90 264.06 C 266.97 245.72 266.86 227.38 266.92 209.04 C 266.68 206.59 267.77 203.90 270.24 203.07 Z" />
</g>
<g id="#2a74b3ff">
<path fill="#2a74b3" opacity="1.00" d=" M 358.07 203.92 C 362.34 202.02 367.10 202.86 371.62 202.69 C 373.80 203.63 375.13 205.72 376.48 207.58 C 376.12 207.97 375.39 208.74 375.03 209.12 C 374.00 207.77 372.85 206.49 371.64 205.30 C 371.11 205.26 370.03 205.19 369.49 205.16 C 366.53 205.07 363.58 205.20 360.63 205.15 C 359.99 204.84 358.71 204.23 358.07 203.92 Z" />
</g>
<g id="#3076b5ff">
<path fill="#3076b5" opacity="1.00" d=" M 396.85 208.95 C 398.43 206.63 399.91 203.99 402.51 202.68 C 407.12 202.70 411.74 202.57 416.34 202.96 L 416.94 203.29 C 416.92 203.68 416.88 204.48 416.86 204.88 C 416.16 204.91 414.77 204.97 414.07 205.00 C 410.36 205.20 406.65 204.98 402.95 204.93 C 402.85 205.06 402.65 205.32 402.55 205.45 C 398.17 212.13 393.80 218.82 389.25 225.40 C 388.41 225.40 386.73 225.41 385.89 225.41 C 386.20 224.92 386.84 223.94 387.15 223.45 C 390.39 218.62 393.70 213.84 396.85 208.95 Z" />
</g>
<g id="#574f9bec">
<path fill="#574f9b" opacity="0.93" d=" M 416.94 203.29 C 418.14 204.07 419.44 204.61 420.88 204.07 C 420.40 205.32 419.91 206.56 419.39 207.79 L 418.61 209.00 C 418.42 208.74 418.05 208.23 417.86 207.97 C 417.59 207.49 417.04 206.52 416.77 206.04 L 416.86 204.88 C 416.88 204.48 416.92 203.68 416.94 203.29 Z" />
</g>
<g id="#2972b1ff">
<path fill="#2972b1" opacity="1.00" d=" M 420.88 204.07 C 422.19 204.08 423.33 203.63 424.29 202.71 C 436.53 202.74 448.76 202.78 461.00 202.75 C 467.01 202.85 473.20 202.09 479.02 204.04 C 478.57 205.45 478.79 206.73 479.68 207.90 C 478.25 207.64 477.85 206.14 477.08 205.16 C 476.47 205.16 475.27 205.15 474.67 205.14 C 457.95 205.04 441.22 205.25 424.49 205.07 C 423.82 204.96 422.48 204.75 421.81 204.65 C 421.79 205.22 421.76 206.37 421.75 206.94 C 420.30 208.41 420.39 210.53 421.69 212.06 C 421.80 212.79 421.93 213.53 422.08 214.27 C 424.02 214.54 425.97 214.77 427.93 214.98 C 428.04 215.51 428.26 216.56 428.37 217.09 C 425.57 217.04 422.11 217.38 420.33 214.71 C 419.58 212.48 419.55 210.10 419.39 207.79 C 419.91 206.56 420.40 205.32 420.88 204.07 Z" />
</g>
<g id="#582b69ab">
<path fill="#582b69" opacity="0.67" d=" M 51.04 206.17 C 51.63 205.43 52.24 204.70 52.87 203.99 C 51.58 208.58 52.12 213.38 52.04 218.08 C 51.97 237.04 52.16 256.01 51.95 274.96 C 51.67 274.76 51.11 274.36 50.84 274.16 C 50.61 253.11 50.84 232.05 50.72 211.00 C 50.78 209.39 50.58 207.73 51.04 206.17 Z" />
<path fill="#582b69" opacity="0.67" d=" M 291.02 206.21 C 291.63 205.42 292.28 204.64 292.94 203.89 C 291.52 208.47 292.13 213.31 292.03 218.02 C 291.98 236.97 292.12 255.93 291.97 274.88 C 290.03 274.72 291.03 272.19 290.72 270.97 C 290.78 251.99 290.73 233.01 290.75 214.03 C 290.80 211.42 290.49 208.77 291.02 206.21 Z" />
</g>
<g id="#5d3174bb">
<path fill="#5d3174" opacity="0.73" d=" M 66.33 203.94 C 67.01 204.10 68.38 204.42 69.07 204.57 C 68.38 205.96 66.33 205.51 66.33 203.94 Z" />
</g>
<g id="#039b9bff">
<path fill="#039b9b" opacity="1.00" d=" M 73.62 204.75 C 76.48 203.42 79.68 203.45 82.77 203.47 C 84.84 205.48 87.07 208.16 85.24 211.12 C 85.93 207.95 83.02 206.65 80.36 206.82 L 79.58 206.76 C 77.56 206.20 75.58 205.49 73.62 204.75 Z" />
</g>
<g id="#013737ff">
<path fill="#013737" opacity="1.00" d=" M 82.77 203.47 C 85.98 203.85 88.77 205.42 91.40 207.20 C 90.10 211.15 88.39 214.94 86.87 218.80 C 86.20 218.51 84.86 217.92 84.19 217.62 C 80.65 216.45 76.55 215.95 73.33 218.24 C 68.39 221.64 67.46 228.22 67.01 233.76 C 66.40 246.63 66.83 259.51 66.68 272.39 C 66.40 273.58 66.10 274.77 65.79 275.96 C 62.74 276.18 59.68 276.25 56.62 276.06 C 56.29 275.99 55.62 275.86 55.29 275.79 C 55.29 275.46 55.31 274.81 55.31 274.48 C 56.19 273.87 57.07 273.28 57.97 272.72 L 58.84 272.20 C 59.63 272.21 61.21 272.22 62.01 272.23 C 62.04 261.48 61.95 250.72 62.05 239.97 C 62.28 232.48 62.55 224.40 66.82 217.93 L 67.51 217.06 C 69.34 217.10 71.19 215.92 71.04 213.90 L 71.10 213.88 L 71.48 213.26 C 75.79 212.07 80.26 212.23 84.64 212.88 C 84.79 212.44 85.09 211.56 85.24 211.12 C 87.07 208.16 84.84 205.48 82.77 203.47 Z" />
<path fill="#013737" opacity="1.00" d=" M 302.87 204.89 C 303.31 204.91 304.18 204.96 304.61 204.98 C 304.71 205.78 304.91 207.38 305.01 208.18 C 305.19 209.92 305.41 211.66 305.59 213.40 C 305.52 213.67 305.37 214.22 305.30 214.49 C 303.98 214.63 302.67 214.74 301.35 214.83 C 301.00 212.71 300.65 210.56 300.78 208.40 C 301.46 207.22 302.15 206.04 302.87 204.89 Z" />
<path fill="#013737" opacity="1.00" d=" M 369.49 205.16 C 370.03 205.19 371.11 205.26 371.64 205.30 C 372.85 206.49 374.00 207.77 375.03 209.12 C 376.89 212.47 379.06 215.63 381.09 218.87 C 382.54 221.15 383.69 223.71 385.89 225.41 C 386.73 225.41 388.41 225.40 389.25 225.40 C 387.59 227.60 386.22 230.64 383.03 230.64 C 379.19 223.42 374.44 216.74 370.17 209.77 C 369.87 208.24 369.68 206.70 369.49 205.16 Z" />
<path fill="#013737" opacity="1.00" d=" M 474.67 205.14 C 475.27 205.15 476.47 205.16 477.08 205.16 C 477.51 207.38 478.04 209.66 477.74 211.94 C 477.16 214.03 475.65 215.70 474.37 217.40 C 463.87 230.23 453.58 243.22 443.12 256.09 C 440.99 258.51 438.97 261.04 437.45 263.89 C 438.36 264.58 439.27 265.28 440.18 265.98 C 437.87 265.89 435.78 266.77 434.30 268.53 C 433.39 268.46 432.48 268.39 431.58 268.32 C 431.50 266.03 430.71 263.35 432.47 261.47 C 445.11 246.40 457.20 230.87 469.67 215.66 C 471.48 213.62 473.12 211.38 473.85 208.71 C 474.16 207.53 474.40 206.33 474.67 205.14 Z" />
<path fill="#013737" opacity="1.00" d=" M 139.72 206.22 C 140.84 206.74 141.94 207.29 143.03 207.88 C 143.53 208.21 144.53 208.88 145.03 209.21 C 147.60 212.63 149.54 216.63 149.78 220.96 C 150.32 230.63 149.64 240.32 150.31 249.99 C 150.21 258.71 150.31 267.52 152.93 275.93 C 149.53 276.29 146.09 276.51 142.69 276.02 C 142.33 275.90 141.60 275.66 141.24 275.55 L 140.79 274.92 C 141.87 274.10 142.95 273.30 144.04 272.51 C 144.86 272.42 146.51 272.25 147.34 272.16 C 145.12 263.55 146.00 254.61 145.53 245.82 C 145.23 237.90 145.65 229.96 145.31 222.04 C 145.07 217.05 142.94 211.54 138.14 209.32 C 138.53 208.55 139.32 207.00 139.72 206.22 Z" />
<path fill="#013737" opacity="1.00" d=" M 181.60 212.31 C 187.52 209.78 195.32 208.88 200.47 213.50 C 200.56 215.38 201.14 217.17 202.01 218.84 C 200.81 218.13 199.61 217.43 198.40 216.75 C 193.39 212.95 185.88 214.39 181.51 218.52 C 177.31 222.49 176.20 228.51 175.92 234.04 C 175.86 247.53 175.77 261.02 175.97 274.51 C 173.22 277.20 169.07 275.95 165.63 276.03 C 165.31 275.95 164.66 275.79 164.34 275.70 C 164.33 275.42 164.32 274.86 164.31 274.58 C 165.14 273.94 165.97 273.30 166.82 272.70 L 167.83 272.22 C 168.66 272.22 170.34 272.21 171.17 272.21 C 171.26 259.79 171.10 247.37 171.24 234.96 C 171.59 228.60 172.35 221.66 176.75 216.70 C 178.34 215.21 179.92 213.70 181.60 212.31 Z" />
<path fill="#013737" opacity="1.00" d=" M 423.01 213.34 C 424.29 211.93 425.83 210.42 427.91 210.64 C 439.19 210.62 450.47 210.58 461.75 210.64 C 461.94 212.12 461.50 213.29 460.43 214.14 C 447.96 213.94 435.41 214.91 423.01 213.34 Z" />
<path fill="#013737" opacity="1.00" d=" M 133.23 237.16 L 133.88 236.92 C 135.48 237.15 137.07 237.45 138.65 237.77 C 138.60 238.48 138.48 239.92 138.43 240.63 C 136.16 241.27 133.90 241.96 131.68 242.75 C 124.64 245.37 116.84 244.94 109.89 247.83 C 105.14 249.74 102.43 255.70 104.54 260.46 C 105.56 263.39 108.31 265.05 110.83 266.56 C 111.73 267.12 112.61 267.69 113.50 268.28 C 111.15 268.39 108.81 268.63 106.47 268.82 C 97.77 264.58 96.68 251.02 104.51 245.42 C 113.05 239.65 124.47 242.22 133.23 237.16 Z" />
<path fill="#013737" opacity="1.00" d=" M 134.63 265.68 C 136.22 265.14 137.89 265.25 139.52 265.36 C 139.51 267.37 139.47 269.38 139.59 271.39 C 138.43 271.15 137.27 270.95 136.10 270.79 C 132.73 272.47 129.75 274.89 126.13 276.06 C 120.58 278.35 114.48 277.92 108.61 278.02 C 102.56 276.82 96.65 273.52 94.25 267.56 C 98.51 269.47 102.22 272.80 107.04 273.26 C 113.63 274.03 120.75 274.03 126.71 270.72 C 129.54 269.36 132.19 267.64 134.63 265.68 Z" />
</g>
<g id="#027979ff">
<path fill="#027979" opacity="1.00" d=" M 109.36 205.13 C 113.32 203.07 117.91 204.37 122.11 203.33 C 128.07 202.69 134.24 203.80 139.72 206.22 C 139.32 207.00 138.53 208.55 138.14 209.32 C 128.93 204.84 118.56 205.39 108.62 205.49 L 109.36 205.13 Z" />
</g>
<g id="#038989ff">
<path fill="#038989" opacity="1.00" d=" M 187.18 204.03 C 191.92 203.47 197.01 202.97 201.55 204.79 C 201.57 205.40 201.60 206.62 201.62 207.24 C 200.20 207.08 198.78 206.97 197.36 206.90 L 196.68 206.85 C 192.59 205.40 188.22 205.17 183.95 205.66 C 185.00 205.07 186.06 204.49 187.18 204.03 Z" />
</g>
<g id="#524d99e8">
<path fill="#524d99" opacity="0.91" d=" M 282.24 204.02 C 283.49 204.86 283.58 206.50 283.43 207.85 L 282.77 207.84 C 281.92 206.67 281.74 205.40 282.24 204.02 Z" />
<path fill="#524d99" opacity="0.91" d=" M 479.02 204.04 C 480.29 204.89 480.39 206.66 480.33 208.05 L 479.68 207.90 C 478.79 206.73 478.57 205.45 479.02 204.04 Z" />
<path fill="#524d99" opacity="0.91" d=" M 481.05 265.08 C 482.30 265.95 482.36 267.65 482.40 269.04 L 481.73 268.91 C 480.77 267.76 480.55 266.48 481.05 265.08 Z" />
</g>
<g id="#028282ff">
<path fill="#028282" opacity="1.00" d=" M 318.12 204.14 C 323.94 203.92 330.78 202.35 335.79 206.14 C 335.10 206.47 333.72 207.13 333.03 207.46 C 327.24 205.57 321.04 204.95 314.99 205.72 C 316.01 205.16 317.04 204.60 318.12 204.14 Z" />
</g>
<g id="#1acad2ff">
<path fill="#1acad2" opacity="1.00" d=" M 356.46 204.51 C 356.87 204.36 357.67 204.07 358.07 203.92 C 358.71 204.23 359.99 204.84 360.63 205.15 C 361.90 205.98 363.16 206.84 364.46 207.65 C 364.11 207.93 363.41 208.50 363.06 208.79 C 361.92 208.53 360.79 208.27 359.67 207.98 C 358.49 207.19 357.30 206.41 356.15 205.61 C 356.23 205.33 356.38 204.78 356.46 204.51 Z" />
</g>
<g id="#04d9d9ff">
<path fill="#04d9d9" opacity="1.00" d=" M 54.53 205.14 C 55.02 205.10 56.02 205.02 56.52 204.98 C 57.94 206.13 59.37 207.27 60.80 208.42 C 60.55 210.90 60.96 213.37 61.46 215.80 C 63.08 215.55 65.09 215.65 65.68 213.75 C 66.75 211.86 67.77 209.92 69.16 208.23 C 70.59 207.00 72.07 205.82 73.62 204.75 C 75.58 205.49 77.56 206.20 79.58 206.76 C 76.83 207.28 73.50 207.20 71.56 209.58 C 69.72 211.62 68.03 213.81 66.46 216.07 C 66.55 216.54 66.73 217.47 66.82 217.93 C 62.55 224.40 62.28 232.48 62.05 239.97 C 61.95 250.72 62.04 261.48 62.01 272.23 C 61.21 272.22 59.63 272.21 58.84 272.20 C 59.24 252.13 58.85 232.05 59.04 211.98 C 58.88 210.36 59.58 208.03 57.45 207.54 C 58.06 229.25 57.06 251.02 57.97 272.72 C 57.07 273.28 56.19 273.87 55.31 274.48 C 55.04 257.66 55.27 240.84 55.19 224.02 C 55.10 217.72 55.63 211.38 54.53 205.14 Z" />
<path fill="#04d9d9" opacity="1.00" d=" M 164.18 227.97 C 164.06 220.18 164.59 212.35 163.57 204.60 C 164.08 204.73 165.10 205.00 165.61 205.13 C 167.19 206.31 168.72 207.55 170.18 208.87 C 170.16 210.83 170.35 212.79 170.55 214.75 C 171.42 214.68 173.17 214.56 174.04 214.49 C 174.19 214.27 174.51 213.83 174.66 213.61 C 175.94 211.67 177.42 209.84 179.28 208.42 C 180.84 207.50 182.36 206.53 183.95 205.66 C 188.22 205.17 192.59 205.40 196.68 206.85 C 191.23 207.37 185.27 207.17 180.77 210.82 C 179.11 212.33 175.61 213.95 176.75 216.70 C 172.35 221.66 171.59 228.60 171.24 234.96 C 171.10 247.37 171.26 259.79 171.17 272.21 C 170.34 272.21 168.66 272.22 167.83 272.22 C 168.24 255.83 167.88 239.42 168.00 223.01 C 167.85 218.14 168.33 213.23 167.79 208.38 C 167.46 208.15 166.78 207.69 166.45 207.46 C 166.98 229.20 166.25 250.96 166.82 272.70 C 165.97 273.30 165.14 273.94 164.31 274.58 C 164.02 259.05 164.27 243.51 164.18 227.97 Z" />
<path fill="#04d9d9" opacity="1.00" d=" M 216.13 211.66 C 219.09 208.48 222.84 206.08 226.87 204.47 C 230.32 204.24 233.79 204.38 237.25 204.46 C 241.04 207.00 245.63 208.88 248.06 212.98 C 250.78 217.49 251.18 222.90 251.20 228.05 C 251.18 242.77 251.22 257.49 251.18 272.22 C 250.31 272.22 248.58 272.21 247.72 272.21 C 248.14 261.80 247.78 251.38 247.90 240.97 C 247.94 232.37 248.35 223.38 244.69 215.36 L 244.70 216.01 L 243.43 215.78 C 240.84 213.67 238.51 210.94 235.00 210.44 C 229.77 209.92 224.16 210.27 219.90 213.69 C 224.07 209.23 230.22 207.48 236.17 207.36 C 231.57 207.15 226.67 207.16 222.64 209.70 C 219.51 211.60 216.94 214.33 214.87 217.33 C 214.81 217.64 214.70 218.27 214.65 218.58 C 212.49 223.06 211.23 227.94 211.23 232.92 C 211.13 246.02 211.25 259.12 211.18 272.22 C 210.31 272.22 208.57 272.22 207.70 272.22 C 208.18 259.82 207.74 247.40 207.92 234.99 C 208.07 228.84 207.39 222.64 205.33 216.83 C 205.82 220.21 206.53 223.56 206.65 226.99 C 206.80 242.23 206.42 257.49 206.83 272.73 C 205.93 273.33 205.06 273.99 204.22 274.67 C 204.15 263.77 204.16 252.87 204.16 241.98 C 204.09 236.76 204.53 231.50 203.66 226.32 C 203.50 223.75 203.34 221.12 202.01 218.84 C 201.14 217.17 200.56 215.38 200.47 213.50 C 195.32 208.88 187.52 209.78 181.60 212.31 C 185.83 208.22 191.84 207.70 197.36 206.90 C 198.78 206.97 200.20 207.08 201.62 207.24 C 205.02 209.08 207.71 212.05 209.11 215.66 C 209.93 216.57 211.01 217.16 212.07 217.77 C 212.55 216.98 213.04 216.20 213.53 215.42 C 214.38 214.16 215.23 212.89 216.13 211.66 Z" />
<path fill="#04d9d9" opacity="1.00" d=" M 268.70 204.59 C 272.06 205.62 275.59 206.03 279.04 205.21 C 278.48 205.39 277.36 205.77 276.80 205.96 C 276.15 209.95 276.51 214.01 276.44 218.03 C 276.37 235.92 276.56 253.82 276.35 271.71 C 273.96 272.50 271.43 273.01 269.39 274.59 C 268.94 259.41 269.32 244.21 269.19 229.03 C 269.04 220.88 269.61 212.71 268.70 204.59 M 271.72 207.54 C 272.23 229.02 271.77 250.51 271.95 272.00 L 272.99 271.99 C 272.97 250.73 273.06 229.46 272.95 208.21 L 271.72 207.54 Z" />
<path fill="#04d9d9" opacity="1.00" d=" M 294.45 204.93 C 294.97 204.93 296.00 204.94 296.52 204.94 C 297.97 206.05 299.37 207.24 300.78 208.40 C 300.65 210.56 301.00 212.71 301.35 214.83 C 302.67 214.74 303.98 214.63 305.30 214.49 C 305.37 214.22 305.52 213.67 305.59 213.40 C 306.96 211.55 308.51 209.82 310.33 208.41 C 311.88 207.51 313.41 206.58 314.99 205.72 C 321.04 204.95 327.24 205.57 333.03 207.46 C 334.43 207.95 335.83 208.46 337.20 209.04 C 343.14 212.32 345.21 219.64 345.18 226.01 C 345.21 241.41 345.21 256.81 345.17 272.22 C 344.31 272.22 342.58 272.22 341.72 272.22 C 342.15 263.15 341.77 254.06 341.90 244.98 C 341.78 235.24 342.49 224.96 338.23 215.91 C 338.35 216.36 338.61 217.26 338.74 217.71 C 337.55 216.87 336.38 216.02 335.22 215.17 C 332.98 213.61 330.84 211.78 328.23 210.90 C 321.90 209.30 314.89 210.52 309.82 214.74 C 314.34 209.43 321.33 207.37 328.10 207.32 C 320.23 206.50 311.43 208.71 306.90 215.68 L 308.14 216.33 C 303.18 221.12 302.48 228.46 302.15 234.97 C 301.85 247.38 302.10 259.81 302.00 272.23 C 301.21 272.22 299.61 272.22 298.82 272.21 C 299.25 255.82 298.88 239.40 299.00 223.00 C 298.85 218.13 299.31 213.23 298.81 208.38 C 298.47 208.16 297.79 207.71 297.46 207.49 C 297.97 229.23 297.23 250.99 297.84 272.72 C 296.99 273.28 296.16 273.87 295.34 274.47 C 295.02 257.98 295.27 241.49 295.19 225.01 C 295.06 218.31 295.68 211.56 294.45 204.93 Z" />
<path fill="#04d9d9" opacity="1.00" d=" M 421.81 204.65 C 422.48 204.75 423.82 204.96 424.49 205.07 C 425.13 205.94 425.77 206.82 426.42 207.70 C 440.60 207.63 454.77 207.75 468.94 207.63 C 470.64 207.56 472.34 207.87 473.85 208.71 C 473.12 211.38 471.48 213.62 469.67 215.66 C 457.20 230.87 445.11 246.40 432.47 261.47 C 430.71 263.35 431.50 266.03 431.58 268.32 C 432.48 268.39 433.39 268.46 434.30 268.53 C 447.88 268.98 461.49 268.44 475.08 268.78 C 475.14 269.64 475.26 271.38 475.32 272.24 C 458.08 272.42 440.84 272.09 423.62 272.40 C 424.00 270.38 423.87 268.07 425.38 266.47 C 438.16 250.87 450.93 235.27 463.72 219.68 C 465.81 217.62 465.35 214.59 465.25 211.93 C 463.46 214.91 462.08 218.13 459.96 220.89 C 447.41 236.18 434.82 251.44 422.37 266.80 C 422.62 268.78 422.83 270.77 422.96 272.77 C 421.84 273.25 420.70 273.64 419.56 274.04 C 420.07 271.06 419.61 267.76 420.89 264.99 C 433.27 249.55 446.17 234.52 458.32 218.91 L 458.88 218.12 C 459.88 216.78 460.95 215.49 462.00 214.18 C 461.61 214.17 460.82 214.15 460.43 214.14 C 461.50 213.29 461.94 212.12 461.75 210.64 C 450.47 210.58 439.19 210.62 427.91 210.64 C 425.83 210.42 424.29 211.93 423.01 213.34 C 422.77 213.57 422.31 214.04 422.08 214.27 C 421.93 213.53 421.80 212.79 421.69 212.06 C 422.33 210.40 422.33 208.60 421.75 206.94 C 421.76 206.37 421.79 205.22 421.81 204.65 M 424.99 208.14 C 423.56 211.26 428.31 208.23 424.99 208.14 Z" />
<path fill="#04d9d9" opacity="1.00" d=" M 80.36 206.82 C 83.02 206.65 85.93 207.95 85.24 211.12 C 85.09 211.56 84.79 212.44 84.64 212.88 C 80.26 212.23 75.79 212.07 71.48 213.26 C 73.13 209.71 76.70 207.73 80.36 206.82 Z" />
</g>
<g id="#038b8bff">
<path fill="#038b8b" opacity="1.00" d=" M 56.52 204.98 C 58.65 204.82 60.78 204.74 62.91 204.83 C 62.18 206.01 61.48 207.20 60.80 208.42 C 59.37 207.27 57.94 206.13 56.52 204.98 Z" />
<path fill="#038b8b" opacity="1.00" d=" M 296.52 204.94 C 298.63 204.92 300.75 204.84 302.87 204.89 C 302.15 206.04 301.46 207.22 300.78 208.40 C 299.37 207.24 297.97 206.05 296.52 204.94 Z" />
</g>
<g id="#038d8dff">
<path fill="#038d8d" opacity="1.00" d=" M 165.61 205.13 C 167.72 205.10 169.83 204.94 171.93 204.65 C 171.34 206.05 170.73 207.45 170.18 208.87 C 168.72 207.55 167.19 206.31 165.61 205.13 Z" />
</g>
<g id="#310e2f54">
<path fill="#310e2f" opacity="0.33" d=" M 265.17 208.96 C 265.30 207.48 264.68 205.36 266.46 204.61 C 265.50 211.05 265.90 217.56 265.83 224.04 C 265.87 239.35 265.81 254.65 265.84 269.96 C 265.78 272.52 266.23 275.12 267.73 277.26 C 268.22 277.58 269.21 278.21 269.71 278.53 C 273.06 279.22 276.49 279.29 279.90 279.06 C 279.04 281.11 276.60 279.75 274.97 279.86 C 271.84 279.56 267.69 280.43 265.76 277.21 C 264.67 273.59 265.45 269.74 265.31 266.02 C 265.21 247.00 265.48 227.98 265.17 208.96 Z" />
</g>
<g id="#039999ff">
<path fill="#039999" opacity="1.00" d=" M 360.63 205.15 C 363.58 205.20 366.53 205.07 369.49 205.16 C 369.68 206.70 369.87 208.24 370.17 209.77 C 368.84 208.25 367.09 207.58 365.10 208.04 L 364.46 207.65 C 363.16 206.84 361.90 205.98 360.63 205.15 Z" />
<path fill="#039999" opacity="1.00" d=" M 424.49 205.07 C 441.22 205.25 457.95 205.04 474.67 205.14 C 474.40 206.33 474.16 207.53 473.85 208.71 C 472.34 207.87 470.64 207.56 468.94 207.63 C 454.77 207.75 440.60 207.63 426.42 207.70 C 425.77 206.82 425.13 205.94 424.49 205.07 Z" />
</g>
<g id="#039a9aff">
<path fill="#039a9a" opacity="1.00" d=" M 402.55 205.45 C 402.65 205.32 402.85 205.06 402.95 204.93 C 406.65 204.98 410.36 205.20 414.07 205.00 C 412.89 206.03 411.70 207.05 410.54 208.11 C 409.02 207.95 407.49 207.83 405.97 207.76 L 405.36 207.78 C 404.44 206.98 403.50 206.20 402.55 205.45 Z" />
</g>
<g id="#1b3a90ff">
<path fill="#1b3a90" opacity="1.00" d=" M 477.08 205.16 C 477.85 206.14 478.25 207.64 479.68 207.90 L 480.33 208.05 C 480.58 211.18 479.74 214.23 477.96 216.81 C 466.06 231.06 454.59 245.68 442.88 260.09 C 442.27 260.86 441.69 261.63 441.11 262.41 C 442.56 262.63 444.02 262.83 445.49 263.01 L 444.38 263.80 C 444.03 264.07 443.33 264.61 442.98 264.88 C 454.77 265.91 466.68 264.27 478.43 265.78 C 478.00 265.80 477.14 265.86 476.72 265.88 C 464.55 266.33 452.35 266.07 440.18 265.98 C 439.27 265.28 438.36 264.58 437.45 263.89 C 438.97 261.04 440.99 258.51 443.12 256.09 C 453.58 243.22 463.87 230.23 474.37 217.40 C 475.65 215.70 477.16 214.03 477.74 211.94 C 478.04 209.66 477.51 207.38 477.08 205.16 Z" />
</g>
<g id="#04dadaff">
<path fill="#04dada" opacity="1.00" d=" M 97.05 213.65 C 100.16 209.98 104.33 207.53 108.62 205.49 C 118.56 205.39 128.93 204.84 138.14 209.32 C 142.94 211.54 145.07 217.05 145.31 222.04 C 145.65 229.96 145.23 237.90 145.53 245.82 C 146.00 254.61 145.12 263.55 147.34 272.16 C 146.51 272.25 144.86 272.42 144.04 272.51 C 144.25 269.75 143.50 267.08 142.28 264.64 C 142.13 265.55 141.83 267.36 141.68 268.27 C 141.37 265.67 139.78 263.87 137.12 263.62 C 143.48 256.89 141.96 247.01 141.54 238.61 C 140.71 243.21 141.24 247.94 140.29 252.53 C 138.07 260.97 131.61 268.85 122.78 270.67 C 124.46 268.97 126.05 267.17 127.95 265.71 C 134.98 261.73 138.88 253.70 138.12 245.71 C 138.17 244.01 138.27 242.32 138.43 240.63 C 138.48 239.92 138.60 238.48 138.65 237.77 C 137.07 237.45 135.48 237.15 133.88 236.92 C 133.87 236.73 133.85 236.34 133.84 236.15 C 136.35 235.68 138.82 235.00 141.25 234.19 C 142.60 228.50 142.09 222.48 140.46 216.91 C 141.21 222.71 142.05 229.19 137.97 234.03 C 137.52 234.22 136.62 234.61 136.17 234.80 C 136.34 233.59 136.54 232.38 136.76 231.18 L 137.92 230.70 C 138.02 228.56 138.14 226.43 138.37 224.30 C 140.10 220.59 139.44 215.58 135.35 213.76 C 128.12 208.81 118.38 208.40 110.35 211.48 C 105.62 213.29 103.15 217.97 101.27 222.36 C 98.33 222.26 95.55 223.13 93.37 225.15 C 93.26 225.12 93.05 225.05 92.94 225.01 C 93.22 223.64 93.53 222.28 93.88 220.93 C 94.61 218.37 95.82 215.99 97.05 213.65 M 104.70 210.62 C 100.20 212.73 96.98 217.26 96.41 222.18 C 98.57 222.40 98.76 219.97 99.68 218.67 C 101.96 213.68 106.88 210.44 112.00 208.92 C 117.11 207.11 122.59 207.91 127.89 207.52 C 120.08 207.03 111.84 206.97 104.70 210.62 Z" />
<path fill="#04dada" opacity="1.00" d=" M 402.55 205.45 C 403.50 206.20 404.44 206.98 405.36 207.78 C 404.80 208.10 403.67 208.75 403.11 209.07 C 397.24 216.78 392.95 225.69 386.28 232.78 C 388.37 232.31 390.79 231.98 391.83 229.82 C 396.46 222.42 401.97 215.54 405.97 207.76 C 407.49 207.83 409.02 207.95 410.54 208.11 C 407.50 211.01 405.60 214.82 403.25 218.26 C 399.58 223.92 395.67 229.42 392.07 235.13 C 390.48 237.44 390.49 240.53 392.05 242.87 C 398.31 252.67 405.02 262.18 411.14 272.08 C 409.42 272.28 407.70 272.38 406.00 272.61 C 400.08 264.79 395.26 256.17 390.05 247.86 C 389.90 249.49 389.77 251.12 389.65 252.75 L 389.45 252.79 C 389.46 252.29 389.48 251.28 389.49 250.78 C 389.52 249.99 389.58 248.40 389.61 247.61 C 387.53 246.67 384.72 246.02 383.19 248.25 C 377.92 255.67 373.32 263.58 368.09 271.04 C 367.15 272.69 365.07 272.02 363.55 272.33 C 369.98 263.10 375.99 253.58 382.29 244.25 C 384.20 241.81 383.55 238.64 382.98 235.85 C 382.34 238.67 381.56 241.52 379.89 243.93 C 374.39 252.12 369.06 260.43 363.47 268.57 C 362.52 269.76 362.22 271.27 362.26 272.78 C 360.43 273.52 358.51 274.32 357.33 276.00 L 356.65 276.66 C 356.14 273.89 358.46 271.97 359.81 269.86 C 366.20 260.44 372.39 250.89 378.71 241.42 C 379.22 240.56 379.71 239.70 380.19 238.83 C 380.60 237.26 381.16 235.45 380.00 234.04 C 374.58 225.78 369.21 217.47 363.68 209.27 C 364.04 208.96 364.75 208.35 365.10 208.04 C 367.09 207.58 368.84 208.25 370.17 209.77 C 374.44 216.74 379.19 223.42 383.03 230.64 C 386.22 230.64 387.59 227.60 389.25 225.40 C 393.80 218.82 398.17 212.13 402.55 205.45 Z" />
<path fill="#04dada" opacity="1.00" d=" M 116.64 238.07 C 122.22 239.36 127.65 236.88 133.23 237.16 C 124.47 242.22 113.05 239.65 104.51 245.42 C 96.68 251.02 97.77 264.58 106.47 268.82 C 109.88 271.76 114.56 270.53 118.65 271.11 C 121.34 271.52 124.06 271.35 126.71 270.72 C 120.75 274.03 113.63 274.03 107.04 273.26 C 102.22 272.80 98.51 269.47 94.25 267.56 C 88.10 258.65 90.95 244.96 100.64 239.78 C 104.01 239.14 107.45 239.07 110.87 239.27 C 105.93 240.66 100.47 241.87 97.00 246.00 C 92.68 250.98 93.15 258.35 95.65 264.07 C 94.85 259.60 94.27 254.76 96.58 250.61 C 100.08 243.16 108.55 239.82 116.33 239.35 C 114.74 239.26 113.14 239.18 111.55 239.11 C 113.18 238.48 114.87 237.96 116.64 238.07 Z" />
</g>
<g id="#3781c1ff">
<path fill="#3781c1" opacity="1.00" d=" M 160.98 206.60 C 161.15 206.25 161.48 205.57 161.65 205.23 C 162.39 220.81 161.61 236.43 161.95 252.03 C 161.73 259.55 162.47 267.11 161.39 274.59 C 160.76 270.74 161.03 266.83 161.00 262.95 C 160.99 244.17 161.02 225.38 160.98 206.60 Z" />
</g>
<g id="#3472b4fe">
<path fill="#3472b4" opacity="1.00" d=" M 356.15 205.61 C 357.30 206.41 358.49 207.19 359.67 207.98 C 364.17 215.66 369.67 222.71 374.06 230.45 C 375.29 234.25 377.71 237.53 378.71 241.42 C 372.39 250.89 366.20 260.44 359.81 269.86 C 358.46 271.97 356.14 273.89 356.65 276.66 L 357.33 276.00 C 357.90 276.03 359.05 276.09 359.63 276.12 C 362.81 276.89 365.99 277.82 369.30 277.83 C 366.75 278.27 364.18 278.54 361.63 278.87 C 359.13 278.95 356.77 278.06 354.53 277.07 C 354.58 275.32 354.69 273.58 354.79 271.84 C 361.55 262.77 367.39 253.05 373.79 243.72 C 374.84 241.90 376.91 239.67 375.37 237.54 C 369.55 228.10 363.08 219.04 357.16 209.65 C 356.39 208.42 356.05 207.07 356.15 205.61 Z" />
</g>
<g id="#0f72b6ff">
<path fill="#0f72b6" opacity="1.00" d=" M 415.96 207.09 C 416.16 206.82 416.57 206.30 416.77 206.04 C 417.04 206.52 417.59 207.49 417.86 207.97 L 417.51 208.77 C 417.12 208.35 416.35 207.51 415.96 207.09 Z" />
</g>
<g id="#c1f6f6ff">
<path fill="#c1f6f6" opacity="1.00" d=" M 71.56 209.58 C 73.50 207.20 76.83 207.28 79.58 206.76 L 80.36 206.82 C 76.70 207.73 73.13 209.71 71.48 213.26 L 71.10 213.88 L 71.04 213.90 C 69.35 214.23 68.32 215.66 67.51 217.06 L 66.82 217.93 C 66.73 217.47 66.55 216.54 66.46 216.07 C 68.03 213.81 69.72 211.62 71.56 209.58 Z" />
<path fill="#c1f6f6" opacity="1.00" d=" M 104.70 210.62 C 111.84 206.97 120.08 207.03 127.89 207.52 C 122.59 207.91 117.11 207.11 112.00 208.92 C 106.88 210.44 101.96 213.68 99.68 218.67 C 98.76 219.97 98.57 222.40 96.41 222.18 C 96.98 217.26 100.20 212.73 104.70 210.62 Z" />
<path fill="#c1f6f6" opacity="1.00" d=" M 180.77 210.82 C 185.27 207.17 191.23 207.37 196.68 206.85 L 197.36 206.90 C 191.84 207.70 185.83 208.22 181.60 212.31 C 179.92 213.70 178.34 215.21 176.75 216.70 C 175.61 213.95 179.11 212.33 180.77 210.82 Z" />
<path fill="#c1f6f6" opacity="1.00" d=" M 222.64 209.70 C 226.67 207.16 231.57 207.15 236.17 207.36 C 230.22 207.48 224.07 209.23 219.90 213.69 C 218.17 215.35 216.44 217.00 214.65 218.58 C 214.70 218.27 214.81 217.64 214.87 217.33 C 216.94 214.33 219.51 211.60 222.64 209.70 Z" />
<path fill="#c1f6f6" opacity="1.00" d=" M 306.90 215.68 C 311.43 208.71 320.23 206.50 328.10 207.32 C 321.33 207.37 314.34 209.43 309.82 214.74 C 309.40 215.13 308.56 215.93 308.14 216.33 L 306.90 215.68 Z" />
<path fill="#c1f6f6" opacity="1.00" d=" M 403.11 209.07 C 403.67 208.75 404.80 208.10 405.36 207.78 L 405.97 207.76 C 401.97 215.54 396.46 222.42 391.83 229.82 C 390.79 231.98 388.37 232.31 386.28 232.78 C 392.95 225.69 397.24 216.78 403.11 209.07 Z" />
<path fill="#c1f6f6" opacity="1.00" d=" M 459.96 220.89 C 462.08 218.13 463.46 214.91 465.25 211.93 C 465.35 214.59 465.81 217.62 463.72 219.68 C 450.93 235.27 438.16 250.87 425.38 266.47 C 423.87 268.07 424.00 270.38 423.62 272.40 L 422.96 272.77 C 422.83 270.77 422.62 268.78 422.37 266.80 C 434.82 251.44 447.41 236.18 459.96 220.89 Z" />
<path fill="#c1f6f6" opacity="1.00" d=" M 244.69 215.36 C 248.35 223.38 247.94 232.37 247.90 240.97 C 247.78 251.38 248.14 261.80 247.72 272.21 L 246.94 272.72 C 246.29 261.84 246.83 250.92 246.65 240.02 C 246.44 232.01 247.55 223.69 244.70 216.01 L 244.69 215.36 Z" />
<path fill="#c1f6f6" opacity="1.00" d=" M 338.23 215.91 C 342.49 224.96 341.78 235.24 341.90 244.98 C 341.77 254.06 342.15 263.15 341.72 272.22 L 340.94 272.72 C 340.31 263.17 340.81 253.58 340.65 244.01 C 340.42 235.25 341.42 226.20 338.74 217.71 C 338.61 217.26 338.35 216.36 338.23 215.91 Z" />
<path fill="#c1f6f6" opacity="1.00" d=" M 137.97 234.03 C 142.05 229.19 141.21 222.71 140.46 216.91 C 142.09 222.48 142.60 228.50 141.25 234.19 C 138.82 235.00 136.35 235.68 133.84 236.15 C 133.85 236.34 133.87 236.73 133.88 236.92 L 133.23 237.16 C 127.65 236.88 122.22 239.36 116.64 238.07 C 123.26 237.96 129.88 236.87 136.17 234.80 C 136.62 234.61 137.52 234.22 137.97 234.03 Z" />
<path fill="#c1f6f6" opacity="1.00" d=" M 205.33 216.83 C 207.39 222.64 208.07 228.84 207.92 234.99 C 207.74 247.40 208.18 259.82 207.70 272.22 L 206.83 272.73 C 206.42 257.49 206.80 242.23 206.65 226.99 C 206.53 223.56 205.82 220.21 205.33 216.83 Z" />
<path fill="#c1f6f6" opacity="1.00" d=" M 382.98 235.85 C 383.55 238.64 384.20 241.81 382.29 244.25 C 375.99 253.58 369.98 263.10 363.55 272.33 C 363.23 272.44 362.58 272.67 362.26 272.78 C 362.22 271.27 362.52 269.76 363.47 268.57 C 369.06 260.43 374.39 252.12 379.89 243.93 C 381.56 241.52 382.34 238.67 382.98 235.85 Z" />
<path fill="#c1f6f6" opacity="1.00" d=" M 110.87 239.27 C 111.04 239.23 111.38 239.15 111.55 239.11 C 113.14 239.18 114.74 239.26 116.33 239.35 C 108.55 239.82 100.08 243.16 96.58 250.61 C 94.27 254.76 94.85 259.60 95.65 264.07 C 93.15 258.35 92.68 250.98 97.00 246.00 C 100.47 241.87 105.93 240.66 110.87 239.27 Z" />
<path fill="#c1f6f6" opacity="1.00" d=" M 140.29 252.53 C 141.24 247.94 140.71 243.21 141.54 238.61 C 141.96 247.01 143.48 256.89 137.12 263.62 C 136.30 264.32 135.48 265.01 134.63 265.68 C 132.19 267.64 129.54 269.36 126.71 270.72 C 124.06 271.35 121.34 271.52 118.65 271.11 C 120.03 270.98 121.41 270.86 122.78 270.67 C 131.61 268.85 138.07 260.97 140.29 252.53 Z" />
</g>
<g id="#562b6ab2">
<path fill="#562b6a" opacity="0.70" d=" M 159.76 207.16 L 160.98 206.60 C 161.02 225.38 160.99 244.17 161.00 262.95 C 161.03 266.83 160.76 270.74 161.39 274.59 C 162.92 280.04 170.01 278.45 174.23 278.05 C 174.71 278.04 175.68 278.04 176.16 278.03 C 172.84 280.24 168.90 278.90 165.24 279.34 L 164.58 279.41 C 161.18 278.61 159.70 275.27 159.79 272.04 C 159.70 250.42 159.78 228.79 159.76 207.16 Z" />
</g>
<g id="#10429bfd">
<path fill="#10429b" opacity="1.00" d=" M 344.90 207.32 C 346.99 209.53 348.68 212.09 350.49 214.52 C 350.54 215.04 350.65 216.08 350.71 216.59 C 351.66 229.35 351.12 242.16 351.29 254.94 C 351.09 261.13 351.79 267.37 350.94 273.53 L 349.88 274.23 C 350.17 259.50 349.89 244.75 350.02 230.01 C 350.06 226.84 349.90 223.65 349.25 220.54 C 348.55 215.85 346.27 211.52 342.92 208.18 C 343.42 207.96 344.40 207.54 344.90 207.32 Z" />
</g>
<g id="#12369cff">
<path fill="#12369c" opacity="1.00" d=" M 401.51 229.46 C 406.36 222.03 411.55 214.80 415.96 207.09 C 416.35 207.51 417.12 208.35 417.51 208.77 C 412.07 218.64 405.11 227.62 399.19 237.20 C 398.35 238.34 398.19 239.56 398.72 240.86 C 403.04 248.21 408.16 255.06 412.65 262.31 C 413.78 264.24 415.22 265.98 416.99 267.37 C 417.06 267.88 417.19 268.91 417.25 269.42 C 417.68 269.38 418.54 269.31 418.97 269.27 C 419.04 269.84 419.18 270.99 419.25 271.56 C 415.01 271.79 413.62 267.27 411.52 264.47 C 407.07 257.58 402.47 250.79 397.94 243.95 C 397.02 242.45 395.98 240.87 395.93 239.04 C 396.93 235.43 399.55 232.58 401.51 229.46 Z" />
<path fill="#12369c" opacity="1.00" d=" M 308.84 223.86 C 311.86 216.13 322.23 212.15 329.55 216.16 C 329.03 216.31 327.98 216.60 327.45 216.74 C 321.69 215.93 314.29 217.04 311.69 223.01 C 308.68 228.88 309.42 235.62 309.19 241.98 C 308.79 247.97 309.33 253.98 308.85 259.98 C 309.29 265.33 309.46 270.73 308.27 276.01 C 307.67 274.89 307.08 273.76 306.51 272.63 C 306.70 261.42 306.50 250.20 306.62 238.98 C 306.76 233.89 306.88 228.64 308.84 223.86 Z" />
</g>
<g id="#263988ff">
<path fill="#263988" opacity="1.00" d=" M 421.69 212.06 C 420.39 210.53 420.30 208.41 421.75 206.94 C 422.33 208.60 422.33 210.40 421.69 212.06 Z" />
</g>
<g id="#adf3f3ff">
<path fill="#adf3f3" opacity="1.00" d=" M 57.45 207.54 C 59.58 208.03 58.88 210.36 59.04 211.98 C 58.85 232.05 59.24 252.13 58.84 272.20 L 57.97 272.72 C 57.06 251.02 58.06 229.25 57.45 207.54 Z" />
<path fill="#adf3f3" opacity="1.00" d=" M 166.45 207.46 C 166.78 207.69 167.46 208.15 167.79 208.38 C 168.33 213.23 167.85 218.14 168.00 223.01 C 167.88 239.42 168.24 255.83 167.83 272.22 L 166.82 272.70 C 166.25 250.96 166.98 229.20 166.45 207.46 Z" />
<path fill="#adf3f3" opacity="1.00" d=" M 297.46 207.49 C 297.79 207.71 298.47 208.16 298.81 208.38 C 299.31 213.23 298.85 218.13 299.00 223.00 C 298.88 239.40 299.25 255.82 298.82 272.21 L 297.84 272.72 C 297.23 250.99 297.97 229.23 297.46 207.49 Z" />
</g>
<g id="#1f2357ff">
<path fill="#1f2357" opacity="1.00" d=" M 64.80 207.50 C 66.25 207.74 67.70 207.98 69.16 208.23 C 67.77 209.92 66.75 211.86 65.68 213.75 C 65.18 211.70 64.82 209.61 64.80 207.50 Z" />
</g>
<g id="#133792ff">
<path fill="#133792" opacity="1.00" d=" M 91.40 207.20 L 92.83 208.13 C 92.73 208.90 92.53 210.44 92.42 211.20 C 91.57 214.02 90.48 216.78 88.76 219.19 L 86.68 219.32 L 86.87 218.80 C 88.39 214.94 90.10 211.15 91.40 207.20 Z" />
</g>
<g id="#133796ff">
<path fill="#133796" opacity="1.00" d=" M 146.75 208.28 C 149.26 211.00 150.91 214.41 151.70 218.03 C 152.83 223.95 152.29 230.00 152.39 235.99 C 152.37 244.02 152.59 252.04 152.61 260.06 C 152.49 265.47 154.61 270.59 154.70 275.98 C 154.06 276.81 153.39 277.62 152.69 278.41 C 151.03 278.38 149.37 278.40 147.72 278.37 C 146.08 277.50 144.45 276.61 142.69 276.02 C 146.09 276.51 149.53 276.29 152.93 275.93 C 150.31 267.52 150.21 258.71 150.31 249.99 C 149.64 240.32 150.32 230.63 149.78 220.96 C 149.54 216.63 147.60 212.63 145.03 209.21 C 145.46 208.98 146.32 208.51 146.75 208.28 Z" />
</g>
<g id="#1d235dff">
<path fill="#1d235d" opacity="1.00" d=" M 174.20 208.09 C 175.89 208.21 177.58 208.35 179.28 208.42 C 177.42 209.84 175.94 211.67 174.66 213.61 C 174.56 211.77 174.39 209.92 174.20 208.09 Z" />
</g>
<g id="#0d429dfe">
<path fill="#0d429d" opacity="1.00" d=" M 252.64 208.28 C 252.94 208.56 253.55 209.12 253.86 209.40 C 255.58 212.92 257.06 216.61 257.54 220.53 C 256.66 238.16 257.88 255.88 256.92 273.49 L 255.89 274.21 C 256.16 259.80 255.90 245.38 256.02 230.97 C 256.07 227.78 255.91 224.59 255.40 221.44 C 254.96 216.94 253.23 212.67 250.75 208.92 C 251.22 208.76 252.17 208.44 252.64 208.28 Z" />
</g>
<g id="#9ef0f0ff">
<path fill="#9ef0f0" opacity="1.00" d=" M 271.72 207.54 L 272.95 208.21 C 273.06 229.46 272.97 250.73 272.99 271.99 L 271.95 272.00 C 271.77 250.51 272.23 229.02 271.72 207.54 Z" />
</g>
<g id="#103195ff">
<path fill="#103195" opacity="1.00" d=" M 280.82 207.80 L 282.77 207.84 L 283.43 207.85 C 283.35 229.25 283.44 250.66 283.40 272.06 C 283.67 274.42 282.14 276.27 280.85 278.05 C 279.39 278.06 277.93 278.05 276.49 278.08 C 274.65 277.17 272.77 276.35 270.77 275.89 C 274.05 276.45 277.38 276.32 280.65 275.75 C 281.16 268.51 280.84 261.25 280.93 254.01 C 280.86 238.60 281.06 223.20 280.82 207.80 Z" />
</g>
<g id="#1c2661ff">
<path fill="#1c2661" opacity="1.00" d=" M 305.01 208.18 C 306.78 208.27 308.55 208.37 310.33 208.41 C 308.51 209.82 306.96 211.55 305.59 213.40 C 305.41 211.66 305.19 209.92 305.01 208.18 Z" />
</g>
<g id="#039696ff">
<path fill="#039696" opacity="1.00" d=" M 359.67 207.98 C 360.79 208.27 361.92 208.53 363.06 208.79 L 363.68 209.27 C 369.21 217.47 374.58 225.78 380.00 234.04 C 381.16 235.45 380.60 237.26 380.19 238.83 C 378.07 236.09 376.05 233.28 374.06 230.45 C 369.67 222.71 364.17 215.66 359.67 207.98 Z" />
</g>
<g id="#a9f3f3ff">
<path fill="#a9f3f3" opacity="1.00" d=" M 363.06 208.79 C 363.41 208.50 364.11 207.93 364.46 207.65 L 365.10 208.04 C 364.75 208.35 364.04 208.96 363.68 209.27 L 363.06 208.79 Z" />
</g>
<g id="#143490fe">
<path fill="#143490" opacity="1.00" d=" M 376.48 207.58 C 380.13 212.81 383.15 218.47 387.15 223.45 C 386.84 223.94 386.20 224.92 385.89 225.41 C 383.69 223.71 382.54 221.15 381.09 218.87 C 379.06 215.63 376.89 212.47 375.03 209.12 C 375.39 208.74 376.12 207.97 376.48 207.58 Z" />
</g>
<g id="#050002a7">
<path fill="#050002" opacity="0.65" d=" M 417.86 207.97 C 418.05 208.23 418.42 208.74 418.61 209.00 C 418.63 210.97 418.68 212.94 418.67 214.92 L 418.34 215.37 C 413.21 222.61 408.60 230.21 403.49 237.46 C 402.26 239.09 401.50 240.97 400.90 242.90 C 400.17 242.22 399.44 241.54 398.72 240.86 C 398.19 239.56 398.35 238.34 399.19 237.20 C 405.11 227.62 412.07 218.64 417.51 208.77 L 417.86 207.97 Z" />
<path fill="#050002" opacity="0.65" d=" M 374.23 274.97 C 378.16 268.72 382.12 262.49 386.30 256.41 C 387.84 256.34 388.74 257.12 388.99 258.75 C 385.37 265.11 381.07 271.06 377.17 277.25 C 375.90 280.38 372.13 279.08 369.56 279.38 L 370.44 278.95 C 372.21 278.20 373.24 276.51 374.23 274.97 Z" />
</g>
<g id="#3f1f57b5">
<path fill="#3f1f57" opacity="0.71" d=" M 418.61 209.00 L 419.39 207.79 C 419.55 210.10 419.58 212.48 420.33 214.71 C 422.11 217.38 425.57 217.04 428.37 217.09 C 437.53 217.29 446.74 216.55 455.86 217.55 C 454.95 218.69 454.00 219.80 452.99 220.86 C 452.92 220.22 452.78 218.93 452.71 218.29 C 443.80 218.29 434.89 218.43 425.99 218.24 C 423.14 218.30 420.63 216.90 418.34 215.37 L 418.67 214.92 C 418.68 212.94 418.63 210.97 418.61 209.00 Z" />
</g>
<g id="#aff3f3ff">
<path fill="#aff3f3" opacity="1.00" d=" M 424.99 208.14 C 428.31 208.23 423.56 211.26 424.99 208.14 Z" />
</g>
<g id="#0a0106ad">
<path fill="#0a0106" opacity="0.68" d=" M 481.16 207.98 C 481.73 208.16 482.88 208.52 483.46 208.70 C 483.52 210.83 483.58 212.98 483.39 215.11 C 482.31 217.91 479.90 219.85 478.07 222.14 C 469.62 232.63 461.19 243.13 452.74 253.62 C 450.57 256.39 448.07 258.91 446.35 262.00 C 445.04 262.14 443.73 262.29 442.44 262.45 C 442.55 261.86 442.77 260.68 442.88 260.09 C 454.59 245.68 466.06 231.06 477.96 216.81 C 480.42 214.51 480.39 211.02 481.16 207.98 Z" />
</g>
<g id="#190415bd">
<path fill="#190415" opacity="0.74" d=" M 93.55 208.24 C 94.41 209.08 95.24 209.94 96.07 210.80 L 95.62 211.43 C 93.47 214.25 92.03 217.51 90.79 220.82 L 90.39 220.73 C 89.81 220.60 88.65 220.36 88.07 220.24 L 88.76 219.19 C 90.48 216.78 91.57 214.02 92.42 211.20 C 92.71 210.46 93.27 208.98 93.55 208.24 Z" />
<path fill="#190415" opacity="0.74" d=" M 351.01 215.65 C 353.71 217.40 353.97 221.10 354.55 223.97 C 354.91 239.92 354.46 255.89 354.79 271.84 C 354.69 273.58 354.58 275.32 354.53 277.07 C 355.06 278.18 355.78 279.29 357.11 279.50 C 351.15 278.76 345.15 280.09 339.22 279.62 L 339.41 279.38 C 342.70 278.81 346.22 279.89 349.34 278.24 C 351.09 276.66 352.43 274.56 352.24 272.11 C 352.26 258.09 352.19 244.06 352.26 230.04 C 352.29 225.22 351.64 220.43 351.01 215.65 Z" />
</g>
<g id="#0d0108af">
<path fill="#0d0108" opacity="0.69" d=" M 253.86 209.40 C 255.13 209.38 255.58 210.70 256.20 211.56 C 258.77 215.95 260.88 220.83 260.71 226.03 C 260.80 243.60 260.72 261.17 260.75 278.74 C 259.19 278.79 257.63 278.76 256.08 278.64 C 257.19 276.24 258.53 273.80 258.34 271.06 C 258.34 257.05 258.29 243.04 258.35 229.03 C 258.38 226.17 258.03 223.34 257.54 220.53 C 257.06 216.61 255.58 212.92 253.86 209.40 Z" />
<path fill="#0d0108" opacity="0.69" d=" M 119.78 247.79 C 124.50 247.14 129.12 245.94 133.82 245.16 C 134.21 245.36 135.00 245.76 135.40 245.96 C 134.52 250.02 134.66 254.55 131.99 257.99 C 129.58 261.53 125.50 263.23 121.61 264.59 C 117.70 264.80 113.67 264.89 109.94 263.51 C 105.34 260.96 104.88 253.33 109.50 250.60 C 112.61 248.77 116.29 248.42 119.78 247.79 M 118.07 249.47 C 113.15 250.26 108.43 254.70 109.35 260.01 C 108.95 262.20 111.26 263.33 113.04 263.67 C 117.88 264.24 123.09 264.02 127.26 261.20 C 132.36 258.50 134.13 252.43 134.39 247.04 C 128.89 247.34 123.48 248.48 118.07 249.47 Z" />
</g>
<g id="#1c265eff">
<path fill="#1c265e" opacity="1.00" d=" M 210.93 209.73 C 212.50 210.76 214.32 211.24 216.13 211.66 C 215.23 212.89 214.38 214.16 213.53 215.42 C 213.43 215.17 213.22 214.66 213.12 214.41 C 212.40 212.85 211.67 211.29 210.93 209.73 Z" />
</g>
<g id="#028181ff">
<path fill="#028181" opacity="1.00" d=" M 235.00 210.44 C 238.51 210.94 240.84 213.67 243.43 215.78 C 243.41 217.54 243.37 219.30 243.36 221.07 C 242.47 220.35 241.59 219.62 240.73 218.88 C 240.32 218.35 239.91 217.82 239.52 217.28 C 238.81 214.52 237.17 212.24 235.00 210.44 Z" />
</g>
<g id="#20519fff">
<path fill="#20519f" opacity="1.00" d=" M 90.79 220.82 C 92.03 217.51 93.47 214.25 95.62 211.43 C 95.98 211.98 96.70 213.09 97.05 213.65 C 95.82 215.99 94.61 218.37 93.88 220.93 C 93.11 220.90 91.57 220.84 90.79 220.82 Z" />
</g>
<g id="#039f9fff">
<path fill="#039f9f" opacity="1.00" d=" M 67.51 217.06 C 68.32 215.66 69.35 214.23 71.04 213.90 C 71.19 215.92 69.34 217.10 67.51 217.06 Z" />
<path fill="#039f9f" opacity="1.00" d=" M 113.50 268.28 C 118.44 268.38 123.36 267.58 127.95 265.71 C 126.05 267.17 124.46 268.97 122.78 270.67 C 121.41 270.86 120.03 270.98 118.65 271.11 C 114.56 270.53 109.88 271.76 106.47 268.82 C 108.81 268.63 111.15 268.39 113.50 268.28 Z" />
</g>
<g id="#153893ff">
<path fill="#153893" opacity="1.00" d=" M 112.54 215.65 C 118.22 213.48 124.94 213.14 130.55 215.75 C 129.86 215.98 128.49 216.44 127.81 216.67 C 123.86 216.46 119.86 216.17 115.94 216.84 C 109.59 218.02 108.48 225.16 104.93 229.45 C 103.40 229.31 101.86 229.25 100.32 229.18 C 100.13 229.04 99.75 228.75 99.56 228.60 C 98.38 227.57 97.12 226.62 95.75 225.86 C 98.41 226.42 101.11 226.94 103.84 226.84 C 106.84 223.19 107.75 217.61 112.54 215.65 Z" />
</g>
<g id="#03a1a1ff">
<path fill="#03a1a1" opacity="1.00" d=" M 135.35 213.76 C 139.44 215.58 140.10 220.59 138.37 224.30 C 137.64 222.08 136.73 219.92 135.80 217.78 C 135.60 216.45 135.45 215.10 135.35 213.76 Z" />
</g>
<g id="#037d7dff">
<path fill="#037d7d" opacity="1.00" d=" M 209.11 215.66 C 210.42 215.16 211.75 214.74 213.12 214.41 C 213.22 214.66 213.43 215.17 213.53 215.42 C 213.04 216.20 212.55 216.98 212.07 217.77 C 211.01 217.16 209.93 216.57 209.11 215.66 Z" />
</g>
<g id="#192544ff">
<path fill="#192544" opacity="1.00" d=" M 422.08 214.27 C 422.31 214.04 422.77 213.57 423.01 213.34 C 435.41 214.91 447.96 213.94 460.43 214.14 C 460.82 214.15 461.61 214.17 462.00 214.18 C 460.95 215.49 459.88 216.78 458.88 218.12 C 458.00 216.71 457.05 214.92 455.09 215.19 C 446.04 214.88 436.97 215.41 427.93 214.98 C 425.97 214.77 424.02 214.54 422.08 214.27 Z" />
</g>
<g id="#133793ff">
<path fill="#133793" opacity="1.00" d=" M 181.51 218.52 C 185.88 214.39 193.39 212.95 198.40 216.75 C 197.94 216.94 197.02 217.33 196.56 217.52 C 193.37 216.82 190.08 216.68 186.93 217.67 C 180.46 220.17 178.50 227.66 178.39 233.94 L 177.08 233.99 L 175.92 234.04 C 176.20 228.51 177.31 222.49 181.51 218.52 Z" />
</g>
<g id="#0e3e9bff">
<path fill="#0e3e9b" opacity="1.00" d=" M 220.45 219.43 C 224.79 214.32 232.85 213.07 238.50 216.71 C 237.73 216.88 236.17 217.21 235.39 217.37 C 231.72 216.60 227.84 216.76 224.56 218.74 C 223.56 219.34 222.65 220.09 221.88 220.96 C 219.56 223.69 218.80 227.27 218.07 230.68 C 216.81 235.38 217.32 240.26 217.27 245.05 C 217.34 252.72 217.22 260.39 217.35 268.06 C 217.31 270.29 217.49 272.75 215.97 274.59 C 215.59 262.38 215.94 250.16 215.79 237.95 C 215.72 231.59 215.85 224.37 220.45 219.43 Z" />
</g>
<g id="#04d3d3ff">
<path fill="#04d3d3" opacity="1.00" d=" M 335.22 215.17 C 336.38 216.02 337.55 216.87 338.74 217.71 C 341.42 226.20 340.42 235.25 340.65 244.01 C 340.81 253.58 340.31 263.17 340.94 272.72 C 340.05 273.31 339.17 273.91 338.31 274.53 C 337.85 261.69 338.33 248.83 338.06 235.99 C 337.36 230.31 338.08 224.34 335.74 218.98 C 335.54 217.71 335.36 216.44 335.22 215.17 Z" />
<path fill="#04d3d3" opacity="1.00" d=" M 243.43 215.78 L 244.70 216.01 C 247.55 223.69 246.44 232.01 246.65 240.02 C 246.83 250.92 246.29 261.84 246.94 272.72 C 246.04 273.34 245.15 273.97 244.28 274.61 C 243.62 256.77 244.85 238.87 243.36 221.07 C 243.37 219.30 243.41 217.54 243.43 215.78 Z" />
</g>
<g id="#123799ff">
<path fill="#123799" opacity="1.00" d=" M 427.93 214.98 C 436.97 215.41 446.04 214.88 455.09 215.19 C 457.05 214.92 458.00 216.71 458.88 218.12 L 458.32 218.91 C 457.50 218.44 456.70 217.97 455.86 217.55 C 446.74 216.55 437.53 217.29 428.37 217.09 C 428.26 216.56 428.04 215.51 427.93 214.98 Z" />
</g>
<g id="#28164bd9">
<path fill="#28164b" opacity="0.85" d=" M 311.69 223.01 C 314.29 217.04 321.69 215.93 327.45 216.74 C 327.93 217.16 328.88 217.99 329.36 218.40 C 327.02 218.11 324.69 217.54 322.33 217.74 C 318.13 217.77 314.78 220.51 311.69 223.01 Z" />
</g>
<g id="#1e2780fb">
<path fill="#1e2780" opacity="1.00" d=" M 350.71 216.59 L 351.01 215.65 C 351.64 220.43 352.29 225.22 352.26 230.04 C 352.19 244.06 352.26 258.09 352.24 272.11 C 352.43 274.56 351.09 276.66 349.34 278.24 L 348.39 278.10 C 345.46 277.48 342.56 276.70 339.64 276.04 C 342.70 276.15 345.76 276.11 348.82 275.95 C 348.91 275.64 349.11 275.04 349.20 274.73 L 349.88 274.23 L 350.94 273.53 C 351.79 267.37 351.09 261.13 351.29 254.94 C 351.12 242.16 351.66 229.35 350.71 216.59 Z" />
</g>
<g id="#123491ff">
<path fill="#123491" opacity="1.00" d=" M 73.33 218.24 C 76.55 215.95 80.65 216.45 84.19 217.62 C 83.72 217.96 82.78 218.63 82.30 218.96 C 79.40 218.62 75.83 218.15 73.78 220.76 C 73.62 220.95 73.29 221.34 73.13 221.53 C 69.31 225.89 69.44 232.06 68.93 237.50 L 68.19 236.40 C 67.78 235.53 67.38 234.64 67.01 233.76 C 67.46 228.22 68.39 221.64 73.33 218.24 Z" />
</g>
<g id="#0c0108af">
<path fill="#0c0108" opacity="0.69" d=" M 104.93 229.45 C 108.48 225.16 109.59 218.02 115.94 216.84 C 117.18 216.99 118.41 217.15 119.65 217.32 C 114.25 218.97 111.53 224.29 110.30 229.40 C 108.51 229.57 106.72 229.57 104.93 229.45 Z" />
</g>
<g id="#444796ff">
<path fill="#444796" opacity="1.00" d=" M 132.92 216.78 C 133.87 217.13 134.83 217.46 135.80 217.78 C 136.73 219.92 137.64 222.08 138.37 224.30 C 138.14 226.43 138.02 228.56 137.92 230.70 L 136.76 231.18 C 136.35 231.34 135.52 231.64 135.11 231.79 C 138.51 227.03 137.28 220.48 132.92 216.78 Z" />
</g>
<g id="#1e09228e">
<path fill="#1e0922" opacity="0.56" d=" M 224.56 218.74 C 227.84 216.76 231.72 216.60 235.39 217.37 L 236.27 218.46 C 234.29 218.38 232.32 218.28 230.35 218.34 C 228.41 218.40 226.48 218.54 224.56 218.74 Z" />
</g>
<g id="#3381c0ff">
<path fill="#3381c0" opacity="1.00" d=" M 235.39 217.37 C 236.17 217.21 237.73 216.88 238.50 216.71 L 239.52 217.28 C 239.91 217.82 240.32 218.35 240.73 218.88 C 241.64 222.51 242.00 226.25 242.05 229.99 C 242.18 242.33 241.89 254.68 242.13 267.02 C 242.20 269.60 241.79 272.16 241.41 274.71 C 240.49 265.16 241.25 255.53 241.00 245.95 C 240.77 238.24 241.66 230.40 240.08 222.79 C 239.68 220.20 237.53 218.56 235.39 217.37 Z" />
</g>
<g id="#1594caff">
<path fill="#1594ca" opacity="1.00" d=" M 455.86 217.55 C 456.70 217.97 457.50 218.44 458.32 218.91 C 446.17 234.52 433.27 249.55 420.89 264.99 C 419.61 267.76 420.07 271.06 419.56 274.04 C 419.48 273.42 419.32 272.18 419.25 271.56 C 419.18 270.99 419.04 269.84 418.97 269.27 C 418.54 269.31 417.68 269.38 417.25 269.42 C 417.19 268.91 417.06 267.88 416.99 267.37 C 418.28 262.48 422.29 259.10 425.24 255.21 C 434.20 243.92 443.84 233.14 452.39 221.55 C 452.54 221.38 452.84 221.03 452.99 220.86 C 454.00 219.80 454.95 218.69 455.86 217.55 Z" />
</g>
<g id="#0e5cadff">
<path fill="#0e5cad" opacity="1.00" d=" M 82.30 218.96 C 82.78 218.63 83.72 217.96 84.19 217.62 C 84.86 217.92 86.20 218.51 86.87 218.80 L 86.68 219.32 C 85.21 219.51 83.74 219.22 82.30 218.96 Z" />
</g>
<g id="#050002a6">
<path fill="#050002" opacity="0.65" d=" M 178.39 233.94 C 178.50 227.66 180.46 220.17 186.93 217.67 C 187.94 217.69 189.95 217.72 190.96 217.74 C 188.49 219.91 185.52 221.76 184.05 224.82 C 182.25 228.62 181.45 232.84 181.39 237.03 C 181.27 251.07 181.51 265.12 181.27 279.16 C 176.19 279.36 171.09 279.75 166.01 279.79 C 165.82 279.67 165.43 279.45 165.24 279.34 C 168.90 278.90 172.84 280.24 176.16 278.03 C 177.42 276.25 178.48 274.24 178.34 271.98 C 178.45 259.30 178.30 246.62 178.39 233.94 Z" />
</g>
<g id="#010001a0">
<path fill="#010001" opacity="0.63" d=" M 224.56 218.74 C 226.48 218.54 228.41 218.40 230.35 218.34 C 224.83 221.51 221.55 227.63 221.43 233.92 C 221.24 248.66 221.55 263.42 221.29 278.16 C 221.06 278.41 220.60 278.90 220.37 279.15 C 215.32 279.54 210.19 280.03 205.14 279.45 C 208.73 279.46 212.54 280.03 215.94 278.57 C 218.37 277.42 218.39 274.32 218.43 272.02 C 218.41 259.01 218.40 246.01 218.41 233.00 C 218.33 228.73 219.89 224.66 221.88 220.96 C 222.65 220.09 223.56 219.34 224.56 218.74 Z" />
</g>
<g id="#532b69af">
<path fill="#532b69" opacity="0.69" d=" M 235.39 217.37 C 237.53 218.56 239.68 220.20 240.08 222.79 C 241.66 230.40 240.77 238.24 241.00 245.95 C 241.25 255.53 240.49 265.16 241.41 274.71 C 243.03 280.09 250.03 278.38 254.26 278.15 C 254.71 278.27 255.62 278.52 256.08 278.64 C 253.05 280.33 249.31 279.28 245.99 279.44 C 243.87 279.73 242.31 278.23 240.72 277.10 C 240.29 275.08 239.72 273.05 239.75 270.97 C 239.69 256.28 239.87 241.59 239.66 226.90 C 239.78 223.72 238.45 220.73 236.27 218.46 L 235.39 217.37 Z" />
</g>
<g id="#000000a3">
<path fill="#000000" opacity="0.64" d=" M 311.69 223.01 C 314.78 220.51 318.13 217.77 322.33 217.74 C 319.75 220.30 316.23 222.00 314.71 225.50 C 310.88 233.83 312.99 243.22 311.94 252.04 C 312.25 258.01 312.61 264.03 311.86 269.98 C 311.42 272.91 312.53 275.85 311.79 278.76 C 309.74 279.19 307.64 279.78 305.61 278.95 C 306.48 277.95 307.37 276.98 308.27 276.01 C 309.46 270.73 309.29 265.33 308.85 259.98 C 309.33 253.98 308.79 247.97 309.19 241.98 C 309.42 235.62 308.68 228.88 311.69 223.01 Z" />
</g>
<g id="#372157d8">
<path fill="#372157" opacity="0.85" d=" M 73.78 220.76 C 75.83 218.15 79.40 218.62 82.30 218.96 C 83.74 219.22 85.21 219.51 86.68 219.32 L 88.76 219.19 L 88.07 220.24 C 86.30 220.26 84.53 220.35 82.77 220.34 C 81.59 220.11 80.42 219.89 79.25 219.68 C 77.38 219.73 75.55 220.17 73.78 220.76 Z" />
</g>
<g id="#2b7cb3ff">
<path fill="#2b7cb3" opacity="1.00" d=" M 240.73 218.88 C 241.59 219.62 242.47 220.35 243.36 221.07 C 244.85 238.87 243.62 256.77 244.28 274.61 C 244.29 274.89 244.31 275.43 244.32 275.70 C 244.66 275.78 245.33 275.95 245.67 276.03 C 248.53 276.71 251.41 277.36 254.26 278.15 C 250.03 278.38 243.03 280.09 241.41 274.71 C 241.79 272.16 242.20 269.60 242.13 267.02 C 241.89 254.68 242.18 242.33 242.05 229.99 C 242.00 226.25 241.64 222.51 240.73 218.88 Z" />
</g>
<g id="#6955a9fe">
<path fill="#6955a9" opacity="1.00" d=" M 330.84 219.57 C 330.91 219.63 331.06 219.75 331.13 219.81 C 331.06 219.75 330.91 219.63 330.84 219.57 Z" />
</g>
<g id="#00000091">
<path fill="#000000" opacity="0.57" d=" M 73.78 220.76 C 75.55 220.17 77.38 219.73 79.25 219.68 C 78.07 222.42 75.09 223.99 74.35 226.93 C 73.26 231.17 72.38 235.50 72.38 239.89 C 72.19 251.59 72.29 263.29 72.32 275.00 C 72.50 276.61 71.89 278.07 71.20 279.49 C 70.35 279.36 68.65 279.11 67.80 278.99 C 70.64 275.63 69.78 271.03 69.90 266.99 C 69.98 255.99 69.55 244.98 70.38 234.00 C 70.62 229.72 72.12 225.66 73.13 221.53 C 73.29 221.34 73.62 220.95 73.78 220.76 Z" />
</g>
<g id="#260b2543">
<path fill="#260b25" opacity="0.26" d=" M 82.77 220.34 C 84.53 220.35 86.30 220.26 88.07 220.24 C 88.65 220.36 89.81 220.60 90.39 220.73 C 89.32 222.86 89.60 225.36 91.35 227.03 C 91.66 227.39 92.27 228.13 92.58 228.49 C 88.49 229.25 89.39 224.13 89.13 221.65 C 87.10 221.15 83.96 222.56 82.77 220.34 Z" />
</g>
<g id="#5b3376bd">
<path fill="#5b3376" opacity="0.74" d=" M 90.39 220.73 L 90.79 220.82 C 91.37 222.82 91.62 224.94 91.35 227.03 C 89.60 225.36 89.32 222.86 90.39 220.73 Z" />
</g>
<g id="#2a81beff">
<path fill="#2a81be" opacity="1.00" d=" M 90.79 220.82 C 91.57 220.84 93.11 220.90 93.88 220.93 C 93.53 222.28 93.22 223.64 92.94 225.01 C 93.05 225.05 93.26 225.12 93.37 225.15 C 93.96 225.33 95.15 225.68 95.75 225.86 C 97.12 226.62 98.38 227.57 99.56 228.60 C 96.80 228.21 94.05 227.75 91.35 227.03 C 91.62 224.94 91.37 222.82 90.79 220.82 Z" />
</g>
<g id="#1d2985ff">
<path fill="#1d2985" opacity="1.00" d=" M 257.54 220.53 C 258.03 223.34 258.38 226.17 258.35 229.03 C 258.29 243.04 258.34 257.05 258.34 271.06 C 258.53 273.80 257.19 276.24 256.08 278.64 C 255.62 278.52 254.71 278.27 254.26 278.15 C 251.41 277.36 248.53 276.71 245.67 276.03 C 248.72 276.22 251.78 276.14 254.83 275.95 C 254.93 275.64 255.13 275.02 255.24 274.71 L 255.89 274.21 L 256.92 273.49 C 257.88 255.88 256.66 238.16 257.54 220.53 Z" />
</g>
<g id="#532d6bb0">
<path fill="#532d6b" opacity="0.69" d=" M 331.57 220.22 C 334.80 222.80 334.40 227.30 334.82 230.99 C 335.31 244.69 334.85 258.41 335.06 272.12 C 335.04 274.15 335.55 276.42 337.45 277.51 C 340.86 279.22 344.76 278.30 348.39 278.10 L 349.34 278.24 C 346.22 279.89 342.70 278.81 339.41 279.38 L 338.71 279.53 C 335.27 278.69 333.67 275.33 333.79 272.03 C 333.69 261.03 333.78 250.03 333.76 239.04 C 333.61 232.72 334.28 226.14 331.57 220.22 Z" />
</g>
<g id="#161c49ff">
<path fill="#161c49" opacity="1.00" d=" M 349.25 220.54 C 349.90 223.65 350.06 226.84 350.02 230.01 C 349.89 244.75 350.17 259.50 349.88 274.23 L 349.20 274.73 C 348.83 263.49 349.13 252.24 349.01 240.99 C 349.19 234.17 348.68 227.35 349.25 220.54 Z" />
<path fill="#161c49" opacity="1.00" d=" M 255.40 221.44 C 255.91 224.59 256.07 227.78 256.02 230.97 C 255.90 245.38 256.16 259.80 255.89 274.21 L 255.24 274.71 C 254.75 259.80 255.17 244.88 254.96 229.97 C 254.88 227.12 255.12 224.27 255.40 221.44 Z" />
</g>
<g id="#200825ba">
<path fill="#200825" opacity="0.73" d=" M 68.93 237.50 C 69.44 232.06 69.31 225.89 73.13 221.53 C 72.12 225.66 70.62 229.72 70.38 234.00 C 69.55 244.98 69.98 255.99 69.90 266.99 C 69.78 271.03 70.64 275.63 67.80 278.99 L 67.45 279.53 C 63.87 279.77 60.11 278.85 56.72 280.31 C 56.64 280.05 56.47 279.53 56.38 279.27 C 56.53 279.19 56.83 279.03 56.98 278.95 C 57.96 279.02 59.93 279.15 60.92 279.21 C 63.74 278.87 66.80 278.09 68.40 275.50 C 68.82 273.02 68.98 270.50 68.97 267.99 C 68.86 257.83 68.98 247.66 68.93 237.50 Z" />
</g>
<g id="#52397ec6">
<path fill="#52397e" opacity="0.78" d=" M 91.35 227.03 C 94.05 227.75 96.80 228.21 99.56 228.60 C 99.75 228.75 100.13 229.04 100.32 229.18 C 97.84 229.11 95.37 228.96 92.91 228.66 L 92.58 228.49 C 92.27 228.13 91.66 227.39 91.35 227.03 Z" />
</g>
<g id="#3985aaff">
<path fill="#3985aa" opacity="1.00" d=" M 203.66 226.32 C 204.53 231.50 204.09 236.76 204.16 241.98 C 204.16 252.87 204.15 263.77 204.22 274.67 L 203.49 275.46 C 202.56 268.00 203.18 260.49 203.02 253.00 C 203.29 244.11 202.36 235.15 203.66 226.32 Z" />
</g>
<g id="#38133b73">
<path fill="#38133b" opacity="0.45" d=" M 92.91 228.66 C 95.37 228.96 97.84 229.11 100.32 229.18 C 101.86 229.25 103.40 229.31 104.93 229.45 L 105.85 230.16 C 101.58 230.33 96.79 230.65 92.91 228.66 Z" />
</g>
<g id="#03aeaeff">
<path fill="#03aeae" opacity="1.00" d=" M 135.11 231.79 C 135.52 231.64 136.35 231.34 136.76 231.18 C 136.54 232.38 136.34 233.59 136.17 234.80 C 129.88 236.87 123.26 237.96 116.64 238.07 C 114.87 237.96 113.18 238.48 111.55 239.11 C 111.38 239.15 111.04 239.23 110.87 239.27 C 107.45 239.07 104.01 239.14 100.64 239.78 C 108.68 234.79 118.58 235.94 127.45 233.65 C 130.03 233.17 132.62 232.65 135.11 231.79 Z" />
<path fill="#03aeae" opacity="1.00" d=" M 134.63 265.68 C 135.48 265.01 136.30 264.32 137.12 263.62 C 139.78 263.87 141.37 265.67 141.68 268.27 C 141.98 269.92 142.60 271.51 144.04 272.51 C 142.95 273.30 141.87 274.10 140.79 274.92 C 140.66 274.63 140.38 274.06 140.24 273.78 C 140.08 273.18 139.75 271.98 139.59 271.39 C 139.47 269.38 139.51 267.37 139.52 265.36 C 137.89 265.25 136.22 265.14 134.63 265.68 Z" />
</g>
<g id="#1d2a87ff">
<path fill="#1d2a87" opacity="1.00" d=" M 217.27 245.05 C 217.32 240.26 216.81 235.38 218.07 230.68 C 217.77 245.09 218.16 259.51 217.86 273.92 C 218.01 276.12 216.46 277.84 214.37 278.29 C 211.47 277.53 208.57 276.77 205.67 276.00 C 209.10 276.04 213.10 277.05 215.97 274.59 C 217.49 272.75 217.31 270.29 217.35 268.06 C 217.22 260.39 217.34 252.72 217.27 245.05 Z" />
<path fill="#1d2a87" opacity="1.00" d=" M 177.08 233.99 L 178.39 233.94 C 178.30 246.62 178.45 259.30 178.34 271.98 C 178.48 274.24 177.42 276.25 176.16 278.03 C 175.68 278.04 174.71 278.04 174.23 278.05 C 171.33 277.51 168.48 276.77 165.63 276.03 C 169.07 275.95 173.22 277.20 175.97 274.51 C 176.93 273.19 177.13 271.57 177.11 270.00 C 177.06 258.00 177.02 245.99 177.08 233.99 Z" />
</g>
<g id="#3d589bff">
<path fill="#3d589b" opacity="1.00" d=" M 374.06 230.45 C 376.05 233.28 378.07 236.09 380.19 238.83 C 379.71 239.70 379.22 240.56 378.71 241.42 C 377.71 237.53 375.29 234.25 374.06 230.45 Z" />
</g>
<g id="#1c7ebeff">
<path fill="#1c7ebe" opacity="1.00" d=" M 96.97 238.86 C 103.33 233.92 111.58 232.64 119.38 231.98 C 122.03 232.73 124.70 233.42 127.45 233.65 C 118.58 235.94 108.68 234.79 100.64 239.78 C 90.95 244.96 88.10 258.65 94.25 267.56 C 96.65 273.52 102.56 276.82 108.61 278.02 C 109.87 278.67 111.10 279.40 112.35 280.08 C 101.72 280.42 90.86 273.43 88.61 262.70 C 88.84 258.95 88.87 255.20 88.70 251.45 C 89.98 246.49 92.92 241.99 96.97 238.86 Z" />
</g>
<g id="#094fa8ff">
<path fill="#094fa8" opacity="1.00" d=" M 67.01 233.76 C 67.38 234.64 67.78 235.53 68.19 236.40 C 67.97 249.11 68.36 261.83 67.93 274.54 C 67.62 274.00 67.00 272.93 66.68 272.39 C 66.83 259.51 66.40 246.63 67.01 233.76 Z" />
</g>
<g id="#0747a4ff">
<path fill="#0747a4" opacity="1.00" d=" M 175.92 234.04 L 177.08 233.99 C 177.02 245.99 177.06 258.00 177.11 270.00 C 177.13 271.57 176.93 273.19 175.97 274.51 C 175.77 261.02 175.86 247.53 175.92 234.04 Z" />
</g>
<g id="#251f72fe">
<path fill="#251f72" opacity="1.00" d=" M 68.19 236.40 L 68.93 237.50 C 68.98 247.66 68.86 257.83 68.97 267.99 C 68.98 270.50 68.82 273.02 68.40 275.50 L 67.93 274.54 C 68.36 261.83 67.97 249.11 68.19 236.40 Z" />
</g>
<g id="#1c1549ff">
<path fill="#1c1549" opacity="1.00" d=" M 131.68 242.75 C 133.90 241.96 136.16 241.27 138.43 240.63 C 138.27 242.32 138.17 244.01 138.12 245.71 L 137.34 244.57 C 136.20 242.42 133.73 242.74 131.68 242.75 Z" />
</g>
<g id="#113693ff">
<path fill="#113693" opacity="1.00" d=" M 109.89 247.83 C 116.84 244.94 124.64 245.37 131.68 242.75 C 133.73 242.74 136.20 242.42 137.34 244.57 C 136.85 244.92 135.88 245.61 135.40 245.96 C 135.00 245.76 134.21 245.36 133.82 245.16 C 129.12 245.94 124.50 247.14 119.78 247.79 C 116.29 248.42 112.61 248.77 109.50 250.60 C 104.88 253.33 105.34 260.96 109.94 263.51 C 110.16 264.27 110.61 265.79 110.83 266.56 C 108.31 265.05 105.56 263.39 104.54 260.46 C 102.43 255.70 105.14 249.74 109.89 247.83 Z" />
</g>
<g id="#3c65a5ff">
<path fill="#3c65a5" opacity="1.00" d=" M 137.34 244.57 L 138.12 245.71 C 138.88 253.70 134.98 261.73 127.95 265.71 C 123.36 267.58 118.44 268.38 113.50 268.28 C 112.61 267.69 111.73 267.12 110.83 266.56 C 110.61 265.79 110.16 264.27 109.94 263.51 C 113.67 264.89 117.70 264.80 121.61 264.59 C 118.72 265.94 115.48 265.66 112.39 265.84 C 112.76 266.08 113.52 266.58 113.90 266.83 C 121.04 267.85 128.79 265.10 133.28 259.36 C 136.75 255.25 137.05 249.68 137.34 244.57 Z" />
</g>
<g id="#039797ff">
<path fill="#039797" opacity="1.00" d=" M 390.05 247.86 C 395.26 256.17 400.08 264.79 406.00 272.61 C 405.01 273.09 404.00 273.52 402.98 273.90 C 401.30 271.53 399.71 269.11 398.19 266.64 C 397.34 265.10 396.41 263.61 395.41 262.18 C 393.53 259.01 391.56 255.90 389.65 252.75 C 389.77 251.12 389.90 249.49 390.05 247.86 Z" />
</g>
<g id="#1d1547ff">
<path fill="#1d1547" opacity="1.00" d=" M 384.73 253.80 C 385.59 251.74 386.86 249.27 389.49 250.78 C 389.48 251.28 389.46 252.29 389.45 252.79 C 387.86 253.06 386.28 253.36 384.73 253.80 Z" />
</g>
<g id="#5c5fadfc">
<path fill="#5c5fad" opacity="1.00" d=" M 88.61 262.70 C 87.64 259.02 87.61 255.10 88.70 251.45 C 88.87 255.20 88.84 258.95 88.61 262.70 Z" />
</g>
<g id="#18388fff">
<path fill="#18388f" opacity="1.00" d=" M 384.73 253.80 C 386.28 253.36 387.86 253.06 389.45 252.79 L 389.65 252.75 C 391.56 255.90 393.53 259.01 395.41 262.18 C 393.71 260.59 392.19 258.83 390.92 256.88 C 390.57 257.15 389.87 257.69 389.52 257.95 C 388.76 257.02 387.97 256.12 387.18 255.23 C 386.96 255.52 386.52 256.11 386.30 256.41 C 382.12 262.49 378.16 268.72 374.23 274.97 C 372.69 276.07 371.18 277.37 369.30 277.83 C 365.99 277.82 362.81 276.89 359.63 276.12 C 363.03 276.14 366.57 276.83 369.90 275.84 C 372.20 274.17 373.44 271.47 375.06 269.20 C 378.23 264.04 381.93 259.19 384.73 253.80 Z" />
</g>
<g id="#3714408e">
<path fill="#371440" opacity="0.56" d=" M 441.11 262.41 C 441.69 261.63 442.27 260.86 442.88 260.09 C 442.77 260.68 442.55 261.86 442.44 262.45 C 443.73 262.29 445.04 262.14 446.35 262.00 C 452.57 261.60 458.81 261.95 465.04 261.84 C 470.22 261.99 475.56 261.27 480.60 262.79 C 482.77 264.00 482.82 266.89 484.20 268.78 C 481.91 270.78 483.49 274.79 481.36 277.14 C 482.61 274.61 482.64 271.79 482.40 269.04 C 482.36 267.65 482.30 265.95 481.05 265.08 C 479.69 263.80 478.00 262.84 476.08 263.00 C 465.89 262.93 455.69 262.96 445.49 263.01 C 444.02 262.83 442.56 262.63 441.11 262.41 Z" />
</g>
<g id="#5267b0fa">
<path fill="#5267b0" opacity="0.98" d=" M 445.49 263.01 C 455.69 262.96 465.89 262.93 476.08 263.00 C 478.00 262.84 479.69 263.80 481.05 265.08 C 475.19 263.26 469.03 263.94 463.01 263.89 C 456.80 263.89 450.59 263.86 444.38 263.80 L 445.49 263.01 Z" />
</g>
<g id="#178bc5ff">
<path fill="#178bc5" opacity="1.00" d=" M 442.98 264.88 C 443.33 264.61 444.03 264.07 444.38 263.80 C 450.59 263.86 456.80 263.89 463.01 263.89 C 469.03 263.94 475.19 263.26 481.05 265.08 C 480.55 266.48 480.77 267.76 481.73 268.91 C 479.97 268.95 479.85 266.93 479.04 265.86 L 478.43 265.78 C 466.68 264.27 454.77 265.91 442.98 264.88 Z" />
</g>
<g id="#3ce1e1ff">
<path fill="#3ce1e1" opacity="1.00" d=" M 142.28 264.64 C 143.50 267.08 144.25 269.75 144.04 272.51 C 142.60 271.51 141.98 269.92 141.68 268.27 C 141.83 267.36 142.13 265.55 142.28 264.64 Z" />
</g>
<g id="#039898ff">
<path fill="#039898" opacity="1.00" d=" M 434.30 268.53 C 435.78 266.77 437.87 265.89 440.18 265.98 C 452.35 266.07 464.55 266.33 476.72 265.88 C 476.26 268.00 475.79 270.12 475.32 272.24 C 475.26 271.38 475.14 269.64 475.08 268.78 C 461.49 268.44 447.88 268.98 434.30 268.53 Z" />
</g>
<g id="#16236eff">
<path fill="#16236e" opacity="1.00" d=" M 479.04 265.86 C 479.85 266.93 479.97 268.95 481.73 268.91 L 482.40 269.04 C 482.64 271.79 482.61 274.61 481.36 277.14 C 481.17 277.47 480.79 278.15 480.59 278.49 C 479.99 278.52 478.78 278.57 478.17 278.60 L 476.98 277.29 C 466.37 276.60 455.66 277.20 445.01 277.00 C 438.46 276.76 431.84 277.60 425.36 276.38 C 443.30 275.73 461.27 276.61 479.21 275.92 C 479.90 272.59 479.67 269.18 479.04 265.86 Z" />
</g>
<g id="#0000008f">
<path fill="#000000" opacity="0.56" d=" M 481.36 277.14 C 483.49 274.79 481.91 270.78 484.20 268.78 L 485.55 268.90 C 485.57 272.16 485.58 275.43 485.61 278.70 C 483.75 279.08 481.88 279.43 480.00 279.58 L 480.59 278.49 C 480.79 278.15 481.17 277.47 481.36 277.14 Z" />
</g>
<g id="#133794fe">
<path fill="#133794" opacity="1.00" d=" M 126.13 276.06 C 129.75 274.89 132.73 272.47 136.10 270.79 C 137.27 270.95 138.43 271.15 139.59 271.39 C 139.75 271.98 140.08 273.18 140.24 273.78 C 139.77 274.25 138.82 275.19 138.34 275.66 L 138.13 275.88 C 137.46 274.99 136.87 274.06 136.36 273.09 C 131.34 276.77 125.51 279.15 119.42 280.30 C 117.06 280.31 114.70 280.30 112.35 280.08 C 111.10 279.40 109.87 278.67 108.61 278.02 C 114.48 277.92 120.58 278.35 126.13 276.06 Z" />
</g>
<g id="#1d348afd">
<path fill="#1d348a" opacity="1.00" d=" M 65.79 275.96 C 66.10 274.77 66.40 273.58 66.68 272.39 C 67.00 272.93 67.62 274.00 67.93 274.54 L 68.40 275.50 C 66.80 278.09 63.74 278.87 60.92 279.21 L 61.30 278.45 C 61.43 278.19 61.68 277.68 61.80 277.43 C 60.09 276.93 58.37 276.45 56.62 276.06 C 59.68 276.25 62.74 276.18 65.79 275.96 Z" />
</g>
<g id="#1e3187fa">
<path fill="#1e3187" opacity="0.98" d=" M 305.77 275.98 C 306.03 274.86 306.28 273.75 306.51 272.63 C 307.08 273.76 307.67 274.89 308.27 276.01 C 307.37 276.98 306.48 277.95 305.61 278.95 L 305.20 279.41 C 303.79 279.38 302.38 279.36 300.98 279.36 L 301.50 278.46 L 302.03 277.54 C 300.56 277.05 299.08 276.58 297.58 276.18 C 300.31 276.19 303.04 276.17 305.77 275.98 Z" />
</g>
<g id="#11020ca9">
<path fill="#11020c" opacity="0.66" d=" M 119.42 280.30 C 125.51 279.15 131.34 276.77 136.36 273.09 C 136.87 274.06 137.46 274.99 138.13 275.88 L 138.25 276.31 C 132.73 278.22 127.32 280.67 121.39 281.04 C 116.87 281.15 112.22 282.62 107.86 280.79 C 111.71 281.16 115.65 281.34 119.42 280.30 Z" />
</g>
<g id="#247fbfff">
<path fill="#247fbf" opacity="1.00" d=" M 138.34 275.66 C 138.82 275.19 139.77 274.25 140.24 273.78 C 140.38 274.06 140.66 274.63 140.79 274.92 L 141.24 275.55 C 141.60 275.66 142.33 275.90 142.69 276.02 C 144.45 276.61 146.08 277.50 147.72 278.37 C 144.35 278.60 140.77 278.28 138.34 275.66 Z" />
</g>
<g id="#5b387ec8">
<path fill="#5b387e" opacity="0.78" d=" M 51.95 274.96 C 54.14 277.96 57.78 278.67 61.30 278.45 L 60.92 279.21 C 59.93 279.15 57.96 279.02 56.98 278.95 C 56.83 279.03 56.53 279.19 56.38 279.27 L 55.96 279.50 C 54.45 278.71 50.34 277.32 51.95 274.96 Z" />
<path fill="#5b387e" opacity="0.78" d=" M 291.97 274.88 C 294.09 278.09 297.94 278.61 301.50 278.46 L 300.98 279.36 C 298.22 279.75 295.46 279.28 292.91 278.24 C 291.77 277.15 291.46 276.03 291.97 274.88 Z" />
</g>
<g id="#2f1c58e5">
<path fill="#2f1c58" opacity="0.90" d=" M 369.30 277.83 C 371.18 277.37 372.69 276.07 374.23 274.97 C 373.24 276.51 372.21 278.20 370.44 278.95 C 367.50 279.08 364.56 279.02 361.63 278.87 C 364.18 278.54 366.75 278.27 369.30 277.83 Z" />
</g>
<g id="#4c2e71c8">
<path fill="#4c2e71" opacity="0.78" d=" M 138.13 275.88 L 138.34 275.66 C 140.77 278.28 144.35 278.60 147.72 278.37 C 149.37 278.40 151.03 278.38 152.69 278.41 L 151.79 279.34 C 147.42 279.65 142.88 279.82 138.73 278.21 C 138.61 277.73 138.37 276.78 138.25 276.31 L 138.13 275.88 Z" />
</g>
<g id="#0e49a1ff">
<path fill="#0e49a1" opacity="1.00" d=" M 407.72 276.49 C 413.61 277.03 419.49 274.98 425.36 276.38 C 431.84 277.60 438.46 276.76 445.01 277.00 C 455.66 277.20 466.37 276.60 476.98 277.29 L 478.17 278.60 C 458.46 277.42 438.66 278.92 418.93 277.79 C 416.04 277.77 413.16 278.10 410.28 278.19 C 409.43 277.60 408.58 277.04 407.72 276.49 Z" />
</g>
<g id="#5d509ae6">
<path fill="#5d509a" opacity="0.90" d=" M 267.73 277.26 L 268.63 277.05 C 268.90 277.42 269.44 278.16 269.71 278.53 C 269.21 278.21 268.22 277.58 267.73 277.26 Z" />
</g>
<g id="#3c1c4889">
<path fill="#3c1c48" opacity="0.54" d=" M 354.53 277.07 C 356.77 278.06 359.13 278.95 361.63 278.87 C 364.56 279.02 367.50 279.08 370.44 278.95 L 369.56 279.38 C 365.46 280.12 361.24 279.69 357.11 279.50 C 355.78 279.29 355.06 278.18 354.53 277.07 Z" />
</g>
<g id="#4b337be8">
<path fill="#4b337b" opacity="0.91" d=" M 269.71 278.53 C 271.96 278.35 274.22 278.21 276.49 278.08 C 277.93 278.05 279.39 278.06 280.85 278.05 C 280.61 278.31 280.14 278.81 279.90 279.06 C 276.49 279.29 273.06 279.22 269.71 278.53 Z" />
</g>
<g id="#3b2e7ffa">
<path fill="#3b2e7f" opacity="0.98" d=" M 404.01 278.18 C 406.10 278.24 408.19 278.24 410.28 278.19 C 413.16 278.10 416.04 277.77 418.93 277.79 C 438.66 278.92 458.46 277.42 478.17 278.60 C 474.80 279.02 471.40 279.24 468.00 279.17 C 453.67 278.98 439.33 279.37 425.01 279.04 C 418.22 278.35 411.43 279.37 404.64 279.08 L 404.01 278.18 Z" />
</g>
<g id="#2c0c2b6f">
<path fill="#2c0c2b" opacity="0.44" d=" M 478.17 278.60 C 478.78 278.57 479.99 278.52 480.59 278.49 L 480.00 279.58 C 465.04 280.21 450.01 279.62 435.02 279.80 C 424.79 279.75 414.56 280.15 404.34 279.59 L 404.64 279.08 C 411.43 279.37 418.22 278.35 425.01 279.04 C 439.33 279.37 453.67 278.98 468.00 279.17 C 471.40 279.24 474.80 279.02 478.17 278.60 Z" />
</g>
</svg>
